<svg xmlns="http://www.w3.org/2000/svg" xmlns:xlink="http://www.w3.org/1999/xlink" version="1.1" id="Layer_1" x="0px" y="0px" viewBox="0 0 190 70" style="enable-background:new 0 0 190 70;" xml:space="preserve">
<style type="text/css">
	.st0{fill:#808080;}
</style>
<title>Fill 1</title>
<desc>Created with Sketch.</desc>
<g id="Symbols">
	<g id="Teeth_x2F_Crowding_x2F_Extreme_x2F_On" transform="translate(-2.000000, 0.000000)">
		<path id="Fill-1" class="st0" d="M189.1,42.1l0,0.4c0,0.7-0.2,1-0.3,1.1c-0.2,0.1-0.8,0-1.3-0.3c-0.9-2.6-2-5.2-2.7-6.6    c0.8-0.3,1.5-0.8,2.1-1.3C189.1,37.2,189.1,38.9,189.1,42.1 M185.8,45.5c-0.2,0.2-1.3,0.3-3.5-0.6c-1.4-0.5-5.2-3.2-6.6-4.1    c0,0-0.1,0-0.1,0c-0.5-1.9-0.9-3.4-1.2-4.5c0.3,0.1,0.6,0.1,0.9,0.1c0.2,0,0.3,0,0.5,0c1.3-0.1,2.3-0.7,3.2-1.5    c1.2,1.3,2.5,2,3.8,2.2c0.6,1.2,2,4.4,3,7.4C185.9,45.2,185.8,45.5,185.8,45.5 M172.8,51.4c-0.6,0.4-2.1,0.2-3.2-0.1    c-0.9-4-2.5-10.1-3.7-12.9c2.4-0.4,3.9-2.8,4.8-4.5c0.4,0.4,0.7,0.7,1.1,1c0,0,0,0,0,0c0,0,1.2,3.9,2.4,9.2    C175.5,49.7,173.5,51,172.8,51.4 M167.2,54.6c-1.2,1.2-4.2,1.2-5.4,0.9c-1.3-0.3-5.9-2.7-8.8-4.2c-0.3-1-0.6-2.2-1-3.4    c-0.9-2.9-1.9-5.5-2.9-7.8c0,0,0.1,0,0.1-0.1l2.4-3.2c1.7,0.9,3.2,1.2,4.3,1.2c1,0,1.7-0.2,2.2-0.4c0.8-0.3,1.5-0.9,2.1-2.3    c1.1,1.4,2.2,2.3,3.3,2.7c0,0.1,0.1,0.2,0.1,0.4c1,1.8,3,9,4.1,14C167.9,53.4,167.7,54.1,167.2,54.6 M151,57.9    c-0.7,0.5-4.8-0.1-7.1-1.1c-1.3-0.6-4.4-3.6-6.2-5.5c1-3.7,1.4-7.5,0.7-12c1.1-0.2,2.2-0.7,3.2-1.6c0.8-0.7,1.4-1.5,1.9-2.5    c2.7,3.1,4.5,7.6,6.4,13.3C152.6,56.6,151.2,57.8,151,57.9 M127,65.3c-1.3,0.3-3.9-1.2-6.7-3.8c-1.9-1.8-3.6-6.8-4.2-8.9    c0.3-1.1,0.5-2.2,0.4-3.1c-0.1-3.1-0.2-5.2-0.2-5.7c4-1.2,8.8-3.8,12.4-6.5c1.4,0.4,5,1.6,7.5,2c0.9,5.8,0,10.3-1.8,15.4    C132.6,59.8,128.3,64.9,127,65.3 M109.4,60.4c-1.7,2-3.7,1.6-6.8,0.1c-1.8-0.9-3.6-5.2-4.3-7.9c0-1,0-1.9-0.1-2.7    c-0.6-3.1-1.1-7-1.3-8.4c0.8-0.4,1.5-0.7,2.1-1c0.3-0.2,0.6-0.3,0.9-0.4c0.2-0.1,0.3-0.1,0.5-0.2c0.6-0.3,1.2-0.5,1.8-1    c2.1,4.7,5.2,5.4,8.5,5.4c0.7,0,1.3,0,2-0.1l0.4,0c0.4,0,0.8-0.1,1.3-0.1c0,0.9,0.1,2.7,0.2,5.3C114.6,52.7,111.6,57.9,109.4,60.4     M93.5,66.8c-0.2,0.6-0.5,0.9-1.1,1c-1.6,0.4-4.2-0.8-5-1.6c-1-0.9-5.1-7.8-7.4-11.8c-0.1-0.1-0.1-0.2-0.2-0.3    c-0.1-1.4-0.5-3.1-1.1-5.1c-1.1-3.8-1.9-7.1-2.3-9c1,2.6,2.5,5.5,6.8,5.5c0.9,0,2-0.1,3.2-0.4c3.6-0.9,6.4-1.9,8.5-2.7    c0.2,1.7,0.8,5.1,1.3,8c0.1,0.6,0.1,1.4,0.1,2.2c0,0.1,0,0.2,0,0.3C96,57.1,94.5,63.8,93.5,66.8 M76.6,58.6    c-1.1,1.5-3.6,2.5-6.9,2.6c-2,0.1-5-3.2-6.5-5.3c0,0,0,0-0.1-0.1c0-0.3-0.1-0.6-0.1-0.9c-0.6-3-2.7-10.6-3.7-13.9    c0.2,0,0.5,0,0.7,0.1c0.9,0,1.8,0.1,2.7,0.1c1.2,0.1,2.5,0.2,3.7,0.2c2.5,0,4.9-0.3,7.6-1.6c0.4,1.6,1.3,5.4,2.5,9.8    C78.3,55.6,77.6,57.2,76.6,58.6 M58.5,59.4L58.5,59.4c-2,0.8-4.4,2.8-8.1,6.4c-2.7,2.6-8.2,2-9,1.3c-1.3-1.3,0.3-6.9,1.1-9.9    c0.1-0.4,0.2-0.7,0.3-1.1c1-3.7,3.6-10.5,5.6-15c1.3-3,4-3.7,5.2-3.9c0.7,1.3,1.8,2.4,3.3,3.1c0.6,2.1,3.4,11.6,4,15    C61.5,58.3,60.4,58.7,58.5,59.4 M37.8,52.9c-2.8,1.5-4.2,1.5-4.8,1.3c-0.2-0.1-0.7-0.3-1-1.4c-0.6-2.5,2.7-10.5,4.9-15    c0,0,0,0,0-0.1c0.4-0.4,0.9-0.9,1.3-1.5c1.1,1.3,2.7,2.6,4.4,2.8c0.2,0,0.4,0,0.6,0c1.1,0,2-0.4,2.9-1.3c2.1-2.1,4.4-4.4,6.2-5.7    c0.1,1,0.3,2,0.6,3.1c-1.7,0.4-4.7,1.5-6.3,5c-1.2,2.6-2.5,6.1-3.7,9.2C42.8,49.5,40.2,51.6,37.8,52.9 M25.8,52.3    c-0.7,0.3-1,0.1-1.1,0c-0.4-0.2-1-0.9-1.4-3.1c-0.3-1.6,0.5-7.2,1.1-10.7c0.8-0.5,1.5-1.3,2.3-2.3c2,3.9,3.4,4.1,3.9,4.1    c0.3,0,0.5,0.1,0.8,0.1c0.7,0,1.3-0.1,2-0.4c-1.3,2.9-2.9,7.1-3.5,10.2c0,0,0,0-0.1,0C30,50.3,28.1,51.4,25.8,52.3 M11.7,47.3    c-0.1,0-0.3-0.1-0.4-0.2c-0.7-0.9-0.8-3.6-0.4-5.5c0.4-1.7,1.2-5.9,1.5-7.7c0.3,0.1,0.7,0.2,1,0.2c0.2,0,0.4,0,0.5,0    c0.2,0,0.4,0,0.6,0c0.7,0,1.4-0.1,2.1-0.4c0.1,0.3,0.2,0.5,0.3,0.7l0.2,0.3c0.8,1.5,2.4,4.4,5,4.5c0,0,0.1,0,0.1,0    c-0.3,1.8-0.8,4.8-0.9,7.2C19.4,46.7,13.6,47.4,11.7,47.3 M7.1,44.6c-0.8-0.5-0.9-3.2-0.9-4.5c0-0.3,0-0.5,0-0.8    c-0.1-1.9,0.7-5.4,1-6.6c0.7-0.1,1.4-0.5,2.1-1.1c0.4,0.4,0.8,0.8,1.2,1.1c-0.1,0.6-1.2,6.3-1.6,8.4c-0.2,0.8-0.3,1.9-0.3,3.2    C7.9,44.6,7.3,44.7,7.1,44.6 M4.1,23.4c0-0.7,0.7-1.9,1.4-3C5.8,24,6.4,28,7.5,29.6c0.1,0.1,0.2,0.3,0.4,0.5    c-0.8,0.7-1.3,0.7-1.4,0.7c-0.4-0.1-0.8-1-1-1.5L5.3,29C4.8,27.8,4.1,25.1,4.1,23.4 M7.5,15.6c0-1.4,0.4-2.4,1-2.9    c0.5-0.4,1.2-0.5,2.1-0.4c1.2,0.2,3.9,3,5.3,4.8c0,0,0,0,0,0c-0.4,1.1-0.7,2.5-0.7,4c-0.1,2.1,0.1,7,0.8,10.5    c-0.4,0.4-1.1,0.4-2.1,0.4c-0.2,0-0.4,0-0.6,0c-0.7,0-2.7-1.5-4.2-3.5C8.1,26.8,7.4,20.1,7.5,15.6 M19.4,16c0.6,0,2.9,1.7,4.7,3.7    c0.1,0.1,0.3,0.2,0.4,0.3c0,5.1,0.2,11.8,1,13.6c0.1,0.1,0.1,0.3,0.2,0.4c0,0-0.1,0.1-0.1,0.1c-1.3,2-2.5,3-3.5,3    c-1.4-0.1-2.6-2.2-3.2-3.4l-0.2-0.3c-1-1.8-1.5-8.6-1.4-12.2C17.5,18,18.6,16.2,19.4,16 M26.8,14.2c0.2-2.8,1.2-3,2.5-3    c0.7,0.1,3.1,2.3,5,4.8c0.1,0.1,0.1,0.1,0.2,0.2c-0.1,1-0.1,2-0.1,3c0.3,5.4,0.9,12.3,2.2,14.8c0.1,0.2,0.2,0.3,0.3,0.5    c-1.5,2-3.7,4.2-5.9,3.8c-0.5-0.1-1.9-1.6-3.5-5.5C26.6,30.7,26.5,18.2,26.8,14.2 M39.4,6.2c0.4-1.1,1-1.8,1.9-2.1    c1.4-0.5,3.4-0.1,5.6,1.1c2.7,1.5,6.2,8.6,7.3,11.2c0,0.1,0.1,0.1,0.1,0.2c-0.1,0.6-0.2,1.3-0.2,1.9c-0.1,3.8-0.7,6.4-1.2,8.5    c-0.2,0.9-0.4,1.8-0.6,2.7c-2.1,1.1-5,3.9-7.7,6.7c-0.5,0.5-1,0.7-1.6,0.6c-1.6-0.2-3.4-2.2-4.4-4c-0.9-1.6-1.6-6.8-2-13.9    C36.3,14.7,38.1,9.8,39.4,6.2 M58.3,13.3c1.9-1.8,4.7-1.9,5.8-1.8c2.5,0.1,6.4,3.2,8,4.7l0.1,0.6c0.8,8.9,1.5,16.1,2.8,20    c-4.2,2.8-7.9,2.6-12.1,2.3C62,39,61.1,39,60.1,38.9c-5.7-0.2-5.8-7-5.8-7.7c0-1.1,0.3-2.3,0.6-3.7c0.5-2.2,1.2-4.9,1.3-8.9    C56.3,16.3,57,14.5,58.3,13.3 M82,2.6c0.7-0.3,1.5-0.5,2.2-0.5c2,0,4,1.1,6.5,2.6c0.4,0.2,0.7,0.4,1.1,0.7    c3.7,2.1,5.4,4.4,7.6,10.9c1.5,4.2,1.5,4.6,1.8,7c0.1,1.3,0.3,3,0.8,6.1c1.1,7.2-0.8,8-2.5,8.7c-0.2,0.1-0.4,0.2-0.6,0.3    c-0.3,0.1-0.6,0.3-0.9,0.4c-2.2,1-5.8,2.8-12.3,4.4c-5.5,1.4-6.5-1.2-7.8-4.5c-0.2-0.6-0.4-1.2-0.7-1.7c0,0,0,0,0,0c0,0,0,0,0,0    c-1.5-3.2-2.2-11.1-3-20.1l-0.1-1C73.3,6.3,79,3.9,82,2.6 M111.1,4.9c3.3-0.4,11.2-0.3,14.9,9.5c3.5,9.4,6.1,17.5,1.9,20.6    c-5.3,4-11.5,6.9-15.1,7l-0.4,0c-4,0.2-6.9,0.3-8.9-5c0.8-1.6,1.1-4.1,0.4-8.2c-0.5-3-0.7-4.7-0.8-6c-0.3-2.3-0.3-3-1.7-7    C103,12.7,107.2,5.4,111.1,4.9 M141.4,10.4c0.1,0.1,0.8,0.7,1.1,5.2c0,0.1,0,0.3,0,0.4c0,0.1,0,0.3,0,0.4    c0.2,3.3,0.2,7.3,0.1,10.5c0,0.3,0,0.5,0,0.8c0,0.1,0,0.2,0,0.3c0,0.7,0,1.3,0,1.8c0,3.6-1.5,5.5-2.4,6.3c-0.9,0.8-2,1.2-2.9,1.1    c-1.8-0.2-4.9-1.1-6.8-1.7c3.6-4.7,0.4-13.6-2.3-21.1C130.8,11.6,136.3,6.9,141.4,10.4 M144.4,33c0.2-0.7,0.3-1.4,0.3-2.1    c1.8,2.2,3.5,3.7,5,4.8L148,38C146.9,36.1,145.8,34.4,144.4,33 M149.4,7.6c0.3-0.2,0.7-0.5,1.1-0.8c1.9-1.3,4.2-3,6.1-2.4    c2.1,0.7,5.1,8.5,4.4,15.4c-0.4,3.7-1.5,15-3.7,15.9c-1.2,0.5-5.6,1.3-12.4-8.1c0-0.2,0-0.4,0-0.6c0.1-4.6,0-8.2-0.2-11.1    C145.9,13,148.1,8.5,149.4,7.6 M168.6,12c0.4,0.7,1,3.4,1,7.9c0,1.4,0.1,2.9,0.2,4.4c0.2,2.8,0.4,6.3-0.2,7.2c0,0,0,0,0,0    c-0.1,0.2-0.3,0.5-0.4,0.8c-0.7,1.4-2,3.9-3.8,4.1c-1.2,0.1-2.7-1.1-4.4-3.4c0.8-2.6,1.4-6.7,2.1-13c0.1-1.2,0.1-2.4,0.1-3.7    C165.2,14.4,167.7,12.4,168.6,12 M176.8,13.4c0.7,0,1.9,0.6,2.5,2.6c0,0.2,0,0.4,0.1,0.5c0.1,0.6,0.2,1.4,0.2,2.3    c0,2.5,0,10.3-1.1,12.8c-0.5,1.1-1.7,2.4-3.1,2.5c-1.5,0.1-2.8-1.1-3.7-2.3c0.5-1.5,0.4-4,0.2-7.7c-0.1-1.5-0.2-3-0.2-4.3    c0-1.2,0-2.2-0.1-3.1C173.7,15.2,176.2,13.5,176.8,13.4 M186.7,11.6c0.2,0,0.3,0.1,0.5,0.3c1,1.1,1.9,4.4,1.6,9.5    c-0.4,6.3-0.7,7.9-1.7,10c-0.5,1.1-1.9,3.1-3.7,3.3c-1.1,0.1-2.2-0.4-3.3-1.7c0.1-0.2,0.2-0.4,0.3-0.6c0.9-2,1.3-6.2,1.3-13.6    c0-0.9-0.1-1.8-0.2-2.6C183.4,14,185.8,11.6,186.7,11.6 M188.3,33.7c0.3-0.5,0.6-0.9,0.8-1.4c1.2-2.5,1.5-4.5,1.9-10.8    c0.3-5.2-0.5-9.3-2.2-11.1c-0.7-0.8-1.5-1-2-1c-1.8,0-4.4,2.6-6,4.4c-0.2-0.3-0.4-0.6-0.6-0.9c-0.9-1.1-2.1-1.7-3.3-1.7    c-1.2,0-3.7,1.7-5.4,3c-0.7-4.4-2.1-4.4-2.7-4.4c-1.3,0-3.8,2-5.9,3.8c-0.8-5.3-2.9-10.5-5.6-11.3c-2.9-0.9-5.8,1.2-7.9,2.7    c-0.4,0.3-0.7,0.5-1.1,0.7c-1.4,0.9-2.9,3.7-4.1,6c-0.3-1.6-0.9-2.7-1.6-3.2c-2.1-1.5-7.8-4-15.2,3.5c-4.4-9.7-12.9-9.8-16.5-9.4    c-4.5,0.6-8.5,6.9-10.3,10.3c-2.1-5.3-4-7.6-7.7-9.7c-0.4-0.2-0.8-0.4-1.1-0.6C88.1,0.8,85-1,81.2,0.6c-3,1.3-9,3.9-9.2,12.7    c-2-1.6-5.1-3.8-7.8-3.9c-2.9-0.1-5.6,0.7-7.4,2.4c-0.6,0.6-1.1,1.2-1.5,1.9c-1.4-3-4.4-8.8-7.4-10.4c-2.8-1.5-5.4-1.9-7.4-1.2    c-1.5,0.6-2.6,1.7-3.2,3.4c-0.8,2.3-1.8,5.1-2.5,8c-1.6-1.9-4.1-4.4-5.7-4.4c-2.8,0-4.3,1.6-4.6,5c0,0.6-0.1,1.7-0.1,3.1    c-3.2-3-4.8-3.3-5.5-3.2c-0.7,0.1-1.4,0.5-2,1.2c-1.2-1.5-4.1-4.6-6.1-4.9c-1.5-0.3-2.8,0-3.8,0.8c-1.1,0.9-1.7,2.4-1.8,4.5    c0,0.5,0,1.1,0,1.8c-0.1,0.1-0.2,0.1-0.3,0.3C4.6,18.2,2,21.3,2,23.4c0,2,0.7,5,1.4,6.4l0.1,0.2c0.3,0.7,0.7,1.7,1.6,2.3    c-0.3,1.4-1.2,4.9-1.1,7.1c0,0.2,0,0.5,0,0.7c0.1,2.2,0.2,5.2,2,6.2c0.4,0.2,0.8,0.3,1.3,0.3c0.4,0,0.9-0.1,1.4-0.3    c0.2,0.7,0.4,1.4,0.8,1.9c0.5,0.7,1.2,1,2,1.1c0.1,0,0.3,0,0.5,0c2.2,0,7.1-0.6,9.2-0.8c0,0.4,0,0.7,0.1,1    c0.3,1.5,0.9,3.7,2.4,4.6c0.4,0.3,0.9,0.4,1.4,0.4c0.4,0,0.9-0.1,1.4-0.3c1.3-0.5,2.5-1.1,3.3-1.5c0,0.2,0,0.4,0.1,0.5    c0.4,1.4,1.1,2.4,2.2,2.8c0.5,0.2,1.1,0.3,1.6,0.3c1.7,0,3.6-0.9,5-1.7c1-0.6,2-1.2,2.9-1.8c-0.3,1-0.6,1.8-0.8,2.6    c-0.1,0.3-0.2,0.7-0.3,1.1c-1.5,5.3-2.6,9.9-0.6,11.9c0.7,0.7,2.6,1.2,4.7,1.2c2.5,0,5.4-0.7,7.3-2.5c2.7-2.6,5.5-5.2,7.3-5.9    l0.1,0c1.2-0.4,2.7-1,3.5-2.6c1.6,1.9,4.3,4.6,6.9,4.6c0,0,0.1,0,0.1,0c4-0.1,7.1-1.4,8.6-3.5c0.5-0.7,0.8-1.4,1.1-2.1    c1.9,3.3,5.3,9,6.5,10.1c1.1,1,3.6,2.2,5.8,2.2c0.4,0,0.8,0,1.2-0.1c1.3-0.3,2.2-1.1,2.6-2.4c0.7-1.9,1.7-6,2.3-10    c0.9,2.1,2.2,4.2,3.9,5c1.2,0.6,3.1,1.5,5,1.5c1.5,0,3-0.5,4.4-2.1c1.3-1.5,2.8-3.7,3.9-6.2c0.9,2.4,2.3,5.7,4,7.3    c2.2,2.1,5.2,4.5,7.8,4.5c0.3,0,0.6,0,0.8-0.1c2.7-0.6,7.3-7.3,9-12.1c0.2-0.6,0.4-1.1,0.6-1.7c1.6,1.7,4.4,4.4,6,5.1    c1.3,0.6,4.5,1.5,6.8,1.5c0.9,0,1.7-0.1,2.3-0.5c1.3-0.8,1.8-2.7,1.4-5.7c2.3,1.2,6.4,3.2,7.8,3.6c0.5,0.1,1.3,0.2,2.2,0.2    c1.7,0,3.9-0.4,5.2-1.7c0.5-0.5,1.1-1.3,1.2-2.6c0.5,0.1,1.2,0.2,1.8,0.2c0.8,0,1.7-0.1,2.3-0.5c2.7-1.6,3.5-4.8,2.4-9.4    c1.7,1.1,4,2.6,5.1,3.1c1.5,0.6,2.8,0.9,3.8,0.9c0.9,0,1.5-0.2,2-0.7c0.4-0.4,0.6-0.9,0.7-1.4c0.2,0,0.5,0.1,0.7,0.1    c0.4,0,0.8-0.1,1.2-0.3c0.9-0.5,1.4-1.5,1.4-2.9l0-0.4C191.2,38.7,191.2,36.2,188.3,33.7"></path>
	</g>
</g>
</svg>