<svg xmlns="http://www.w3.org/2000/svg" xmlns:xlink="http://www.w3.org/1999/xlink" version="1.1" id="Layer_1" x="0px" y="0px" viewBox="0 0 193 69.5" style="enable-background:new 0 0 193 69.5;" xml:space="preserve">
<style type="text/css">
	.st0{fill:#808080;}
</style>
<title>teeth</title>
<desc>Created with Sketch.</desc>
<g id="_x30_6_x5F_Scheduler">
	<g id="_x30_6_x5F_Scheduler_x5F_D_x5F_01_x5F_01" transform="translate(-413.000000, -852.000000)">
		<g id="Group-11" transform="translate(0.000000, 392.000000)">
			<g id="Group-10" transform="translate(261.000000, 0.000000)">
				<g id="Group-Copy-2" transform="translate(0.000000, 310.000000)">
					<g id="Group-6" transform="translate(117.000000, 58.000000)">
						<g id="Group-5">
							<g id="Teeth_x2F_Crowding_x2F_Mild_x2F_Off" transform="translate(34.995330, 92.903950)">
								<path id="Page-1" class="st0" d="M190.6,49.3C190.6,49.3,190.6,49.3,190.6,49.3c-0.1,0-0.7,0.1-2.2-1.2c0,0-0.1,0-0.1-0.1          c-0.8-3.7-2.3-8.2-3.2-10.7c0.8,0,1.5-0.1,2.2-0.3C188.6,39.1,191.8,45.1,190.6,49.3L190.6,49.3z M186.7,52          c-0.2,2.1-0.6,2.4-0.7,2.5c-0.1,0-0.5,0.1-1.9-0.7c-2.5-1.4-5.9-4.3-5.9-4.3c-0.1-0.1-0.1-0.1-0.2-0.1          c-0.2-3.1-0.7-6.6-1-8.5c0.5-0.4,1-0.9,1.3-1.3c0.6,0.2,1.2,0.3,1.8,0.3c0.9,0,1.7-0.2,2.4-0.7c0.3-0.2,0.6-0.5,0.9-0.8          C184.7,42.6,186.9,49.5,186.7,52L186.7,52z M175.5,54.5c-2.1,0-4.8-1.7-5.9-3.1c-0.4-3.9-1.5-9-2-11.1c0,0,0.1-0.1,0.1-0.1          c1.4,1.6,2.9,2.4,4.5,2.5c0.1,0,0.2,0,0.3,0c0.9,0,1.7-0.2,2.4-0.6C175.9,48.1,176.1,53.4,175.5,54.5L175.5,54.5z           M167.5,55.2c-0.6,1.4-1.3,2.3-1.9,2.3c-0.5,0.1-1.2-0.5-2-1.6c-2.7-3.7-5.8-7.2-5.9-7.4c-0.1-0.1-0.1-0.1-0.2-0.2          c-1.1-6.8-4-11.7-5.1-13.4c0.1-0.2,0.3-0.4,0.4-0.7c0.4,0.5,0.7,0.9,1,1.3c3.1,3.9,4.5,5.7,8.6,6.3c0.4,0.1,0.8,0.1,1.2,0.1          c0.8,0,1.5-0.1,2.1-0.4C167.5,49.6,167.9,54.3,167.5,55.2L167.5,55.2z M155.9,55.5c-0.2,5.2-0.5,10-1.7,10.8          c-0.4,0.3-1.2,0.2-2.7-0.3c-2.9-0.9-4-3.1-5.4-5.7c-0.6-1-1.1-2.1-1.8-3.2c-2.1-3.1-3.7-5.7-4.1-6.3          c0.8-4.9,1.6-11,1.9-13.7c1.6,0.6,3.4,0.9,5.1,0.9c0.2,0,0.4,0,0.6,0c0.8,0,2.1-0.3,3.2-1.3          C152.6,39.4,156.3,46.6,155.9,55.5L155.9,55.5z M131.2,63.3c-3.4-0.7-4.6-1.8-5.2-5c-0.6-3.1-1.8-14-2.2-17.4l0.6-0.1          c6.4-0.7,7-0.8,9.2-3.5c1-1.3,1.6-2.7,1.9-4.4c1.2,1.3,2.7,2.4,4.5,3.3c-0.7,6.3-2.2,17.7-3.3,20.4          C135.3,60.5,133.8,63.8,131.2,63.3L131.2,63.3z M112.2,65.3c-1.9-0.2-5.2-1.8-6.3-9.8c-0.7-4.6-2.2-14.2-2.7-16.9          c0.5-0.3,0.9-0.6,1.3-1c0.4,0.9,0.9,1.7,1.6,2.3c1.8,1.7,4.3,2.2,7.1,2.2c2.2,0,4.6-0.3,7-0.6c0.4-0.1,0.8-0.1,1.3-0.2          c-0.3,5.4-0.9,13.3-1.6,14.9C116.5,64,113.8,65.5,112.2,65.3L112.2,65.3z M93.6,63.5c-2.6-0.4-6.1-3.6-8.1-10.5          c0-0.1,0-0.2-0.1-0.3c-0.9-3.2-1.4-7.1-1.4-11.8c1.1,0.1,2.9,0.2,4.9,0.2c3.9,0,8.8-0.3,12.3-1.6c0.4,2.4,1.2,7.4,1.9,11.7          C100.8,56.6,96.3,63.9,93.6,63.5L93.6,63.5z M77.3,60.6c-0.3,0.2-0.7,0.3-1,0.5c-2.2,1.1-4.3,2.1-5.4,1.5          c-0.7-0.4-1.2-1.4-1.5-3.2c-1-6.1-2.5-18-2.6-19.6c2.3-0.1,5.4-0.7,8.8-2.2c0.7,1.8,2.1,2.6,6.3,3.1c0,4.8,0.5,8.9,1.4,12.3          C82.8,54.3,80.8,58.9,77.3,60.6L77.3,60.6z M59.9,60.7c-0.5,0.4-1,0.8-1.6,1.3c-1.9,1.6-5.3,4.6-6.5,3.6          c-0.5-0.4-2.1-2.9-2.1-17.5c0-7.3,1.7-11.8,5-13.5c0.6,1.4,1.4,2.5,2.6,3.3c1.8,1.2,4.4,1.9,7.4,2c0,0,0,0,0,0.1          c0,0.1,0.6,5,1.3,10.3C64.8,52.9,61.7,59.3,59.9,60.7L59.9,60.7z M36.2,58.5c-1.4,0-1.8-4.3-2-6.4c-0.3-3,1.2-9.8,1.6-11.6          c0.4-0.3,0.8-0.5,1.2-0.8c0.6,1.5,1.5,2.7,3.1,3.1c0.3,0.1,0.6,0.1,0.9,0.1c2.2,0,5.3-1.4,7.5-2.6c-0.6,2.2-0.8,4.8-0.8,7.8          c0,0.7,0,1.3,0,1.9C42.6,55.8,37.9,58.5,36.2,58.5L36.2,58.5z M25.2,53.1c-0.3-1.9-0.6-6.7,3-11.5c0.8,0.3,1.6,0.5,2.4,0.5          h0c0.9,0,1.8-0.2,2.7-0.5c-0.6,2.7-1.4,7.3-1.3,10.1c-2.3,2.3-4.8,4.2-5.7,4.4C26.1,55.9,25.5,55,25.2,53.1L25.2,53.1z           M15.6,57.5c-0.8-0.1-1.9-0.4-2.5-1.3c-0.8-1.2-0.9-3.2-0.3-5.8c1.5-6,3.7-10.1,3.7-10.1c0-0.1,0.1-0.1,0.1-0.2          c0.7-0.2,1.4-0.4,2.2-0.7c0.5,0.6,1.1,1.2,1.8,1.5c0.6,0.3,1.3,0.5,2,0.5c1.1,0,2.2-0.4,3.5-1.2c0.1,0.1,0.2,0.2,0.3,0.3          c-2.8,3.8-3.7,8-3.5,11.3C20.3,54.7,16.9,57.6,15.6,57.5L15.6,57.5z M6.5,50.5C6,50,5.5,48.9,5.7,47.3c0.1-1.4,1-5,5.6-8          c0.1,0.1,0.3,0.2,0.4,0.3c0.8,0.4,1.6,0.6,2.5,0.7c-0.7,1.6-2.1,4.9-3.3,9.2C9.8,50.2,7.5,51.4,6.5,50.5L6.5,50.5z           M3.8,31.5C1.3,26,2.1,18.6,3.1,17.7c0.6,0.1,2.4,1.7,3.7,3.4c0,0,0,0,0,0c-0.4,2.8-0.3,6.5,0,8.7c0.1,1.1,0.4,3.3,1.3,5.4          C6.4,35.2,4.9,33.9,3.8,31.5L3.8,31.5z M9.5,19.4c0.9,0.2,3.6,2.2,6.7,5.1c-0.2,1.4-0.3,3.1-0.3,5.2c0,1.5,0.4,5,1.7,7.8          c-2,0.8-3.7,0.8-4.9,0.2c-2.9-1.5-3.5-6.5-3.8-8.1C8.5,26,8.7,20.4,9.5,19.4L9.5,19.4z M19.1,22.1c0.7,0.3,2.6,2,4.3,3.8          c0,0.9-0.1,1.9-0.1,2.9c0,1.4-0.1,2.6-0.1,3.6c-0.1,2.2,0.5,4.3,1.6,6c-1.2,0.7-2.3,0.9-3.2,0.4c-0.6-0.3-1.1-0.8-1.5-1.4          c0,0,0,0,0,0c0-0.1-0.1-0.1-0.1-0.2c-1.3-2.2-1.9-5.7-1.9-7.7C18,25.4,18.6,22.8,19.1,22.1L19.1,22.1z M25.3,32.6          c0-1,0.1-2.3,0.1-3.7c0.1-3.6,0.3-10.2,0.7-11.5c0.5-0.4,1-0.5,1.6-0.4c2.4,0.4,5.6,4.1,7.6,7.6c0,0.1,0.1,0.1,0.1,0.2          c-0.3,4.1-0.4,7.3,0.1,8.9c0.2,0.7,0.4,1.5,0.5,2.4c0.1,0.4,0.2,0.9,0.3,1.3c-0.4,0.4-1.1,0.9-2,1.4c0,0,0,0,0,0          c-1,0.6-2.3,1.1-3.6,1.1h0c-1.1,0-2.3-0.5-3.2-1.5C26,37,25.2,34.8,25.3,32.6L25.3,32.6z M38.1,19.7          c0.2-1.6,0.3-3.2,0.4-4.4c0.1-1.5,0.5-2.5,1.2-3.1c1-0.8,2.6-0.7,3.8-0.6c1.1,0.1,5.2,4.2,10.1,10.5          c-0.2,3.6-0.3,7.3,0.4,10.3c-2,0.9-3.5,2.5-4.6,4.7c-2.8,1.7-7.3,3.8-9,3.4c-1.4-0.3-1.9-2.7-2.4-4.9          c-0.2-0.9-0.4-1.8-0.6-2.6C36.9,31.2,37.6,24.3,38.1,19.7L38.1,19.7z M63.5,10.6c2.4-0.6,8.3,4.6,11.9,8.8          c-1.3,5-2.3,10.3-1.1,13.8c0.3,0.9,0.5,1.6,0.6,2.3c-5.1,2.4-12.5,3.2-16.6,0.5c-3.4-2.3-2.9-10.9-2.7-14.1          C56.1,16.9,59.7,11.6,63.5,10.6L63.5,10.6z M79.2,13.7c1.3-4.5,6.4-10.4,10.2-10.6c0.2,0,0.3,0,0.5,0c3.9,0,7.5,2.6,8.9,3.8          c1,0.8,3.1,6.9,4.8,18c0,0.3,0.3,3.4,0.2,7.2c0,0.2,0,0.5,0,0.7c0,0.6-0.1,1.2-0.1,1.8c-0.1,0.9-0.8,1.6-2,2.3          c0,0-0.1,0-0.1,0c-1.2,0.6-3,1.1-5.2,1.5c-3.8,0.6-8.8,0.7-13.4,0.3c-5.3-0.5-5.4-1-5.9-3.3c-0.2-0.8-0.4-1.7-0.8-2.8          c-1.4-4.1,1-12.3,2.5-17.7L79.2,13.7z M109.6,8.9c0.4-0.5,0.8-1.2,1.3-1.9c1.5-2.6,3.5-5.7,8.3-5.7c3.5,0,6.9,2.9,9.2,7.7          c2.3,4.8,5.3,11.7,5.3,16.6c0,4.6,0,8.2-1.9,10.5c-1.7,2.1-1.7,2.1-7.8,2.8l-1.7,0.2c-0.8,0.1-1.7,0.2-2.5,0.3          c-4.8,0.6-9.9,1.3-12.3-1c-1.2-1.1-1.7-2.8-1.6-5.3c0-0.3,0-0.5,0-0.8C107.2,15.2,108.6,10.2,109.6,8.9L109.6,8.9z           M142.8,10.9c2.5-0.7,5.1-1.5,6.6-0.7c0.6,0.4,1.1,1,1.3,2.1c1.1,4.3,1.6,9.8,1.6,13.5c0,1.2-0.1,3.8-0.8,6.1          c0,0.1,0,0.1,0,0.2c-0.7,2-1.8,3.7-3.8,3.8c-4.6,0.2-9.8-2.5-11.8-6c0.1-1.3,0.1-2.8,0.1-4.3c0-2.2-0.6-4.8-1.4-7.4          C136.2,16,140,11.7,142.8,10.9L142.8,10.9z M159.5,13.6c2.4-1.8,5.6-3.5,7.2-2.7c0.8,0.4,1.3,1.4,1.5,3.2          c0.8,9.3,0.8,15.9,0,19.3c-1.1,4.8-2.2,7.1-5.4,6.6c-3.3-0.5-4.3-1.8-7.2-5.6c-0.5-0.7-1.1-1.5-1.8-2.3          c0.4-1.6,0.7-3.7,0.7-6.3c0-1.3-0.1-2.8-0.2-4.5C155.7,18.7,158.3,14.5,159.5,13.6L159.5,13.6z M176.1,16.3          c1.3,0,2.1,0,2.3,6.6c0.2,7.1-0.6,13.9-1.4,14.8c-0.7,0.8-2.6,3-4.7,2.9c-1.2-0.1-2.3-0.8-3.4-2.3c0.7-1.5,1.1-3.1,1.4-4.4          c0.6-2.7,0.8-7,0.5-12.9C172.3,19,174.9,16.3,176.1,16.3L176.1,16.3z M180.6,23.3c1.1-1.1,2.5-1.9,2.9-1.8          c0,0,0.3,0.3,0.3,1.4c0.2,6.8-0.4,10.6-1.2,12.6c0,0,0,0,0,0c-0.4,1-0.9,1.6-1.4,1.9c-0.5,0.3-1.1,0.4-1.8,0.3          C180.6,34.4,180.7,26.8,180.6,23.3L180.6,23.3z M189.8,17.8c0.6,0.2,1.5,3.3,0.7,8.4c-0.6,3.6-1.3,7.3-3.3,8.6          c-0.6,0.4-1.4,0.6-2.3,0.5c1.1-3.6,1.1-8.4,1-12.3c0-0.6-0.1-1.2-0.3-1.6C187.3,19.4,189.2,17.8,189.8,17.8L189.8,17.8z           M192.7,26.5c0.7-4.5,0.3-8.4-1-10c-0.6-0.7-1.3-0.9-1.8-0.9c-1.7,0-4.2,2.5-5.6,3.9c0,0,0,0,0,0c-1.2-0.5-2.6,0.2-3.7,1          c-0.3-3.9-1-6.4-4.3-6.4c-1.8,0-4,1.9-5.5,3.6c-0.1-1.3-0.2-2.6-0.3-4c-0.2-2.6-1.1-4.2-2.7-4.9c-3-1.3-7.2,1.3-9.4,3          c-1.2,0.9-3,3.6-4.3,5.8c-0.3-2-0.6-4-1.1-5.9c-0.4-1.6-1.2-2.7-2.4-3.4c-2.2-1.3-5.3-0.4-8.2,0.5c-3.1,0.9-6.6,4.7-8.4,6.9          c-1-2.8-2.3-5.5-3.3-7.7c-2.7-5.6-6.8-8.9-11.2-8.9c-6.1,0-8.5,4.1-10.2,6.8c-0.4,0.6-0.8,1.3-1.1,1.7          c-0.8,1-1.9,3.5-3,12.3c-1-5.3-2.8-12.9-4.7-14.6C98.1,3.5,93.9,0.7,89.3,1c-4.4,0.3-10.4,6.3-12.1,12.1l-0.3,1.1          c-0.3,0.9-0.5,1.8-0.8,2.7c-2.9-3.2-9.2-9.3-13.1-8.4c-4,1-7.7,5.6-9,10.7c-2.8-3.5-7.8-9.4-10.2-9.7          c-1.5-0.2-3.8-0.3-5.4,1c-1.2,1-1.9,2.5-2,4.6c-0.1,1.2-0.2,2.7-0.4,4.3c-0.1,0.6-0.1,1.3-0.2,1.9c-3.7-5.4-6.7-6.3-7.7-6.5          c-1.3-0.2-2.5,0.1-3.5,0.9c-0.7,0.5-0.9,2-1.2,7.1c-1.5-1.5-3.4-3.1-4.6-3c-0.9,0.1-1.6,0.8-2.1,2.2          c-2.5-2.3-5.9-5.1-7.6-4.9c-0.4,0-0.9,0.2-1.3,0.8c-0.1,0.2-0.3,0.4-0.4,0.6c-1.5-1.6-3.5-3.4-5-3c-3,0.8-2.9,8.9-1.6,13.8          c1.4,5.1,4,7.9,7.5,7.9c0.3,0,0.6,0,1-0.1c0.1,0.2,0.2,0.3,0.4,0.5c-5,3.4-6,7.6-6.1,9.3c-0.2,2.1,0.4,4,1.5,5          c0.7,0.6,1.6,0.9,2.4,0.9c1,0,2-0.3,2.9-0.7c-0.2,2.2,0.1,3.9,1,5.2c0.9,1.3,2.3,2.1,4.1,2.2c0.1,0,0.2,0,0.3,0          c1,0,2.6-0.5,5.8-3.4c0.7-0.6,1.3-1.2,1.8-1.8c0.2,0.7,0.4,1.3,0.6,1.8c0.8,1.7,1.7,2,2.3,2c1.5,0,4.2-2.1,6.1-3.9          c0.4,3.1,1.2,6.2,3.9,6.2c2.6,0,7.2-3.1,11.4-7.6c0.4,12,2.2,13.5,2.8,14.1c0.6,0.5,1.3,0.7,2,0.7c2.4,0,5.1-2.4,7.3-4.3          c0.5-0.5,1.1-0.9,1.5-1.2c1.7-1.3,3.8-5.3,5.3-8.2c0.3,2.1,0.6,4,0.8,5.6c0.4,2.5,1.3,4,2.6,4.7c0.5,0.3,1.1,0.4,1.7,0.4          c1.7,0,3.6-0.9,5.6-1.9c0.3-0.2,0.6-0.3,1-0.5c2.9-1.4,4.9-4.3,6-6.4c2.2,5.7,5.6,9,9,9.5c0.2,0,0.3,0,0.5,0          c3.9,0,7.8-6.5,9.9-10.7c0,0.3,0.1,0.6,0.1,0.8c1,7,3.9,11.1,8.2,11.7c0.2,0,0.4,0,0.6,0c4.8,0,8.1-7.8,9.3-10.5          c0.4-0.9,0.7-3.2,1-5.7c0.4,3.1,0.8,6.1,1.1,7.5c0.6,3.4,2,5.7,6.9,6.7c4.6,0.9,6.6-4.4,8-8c0.3-0.7,0.6-2,0.9-3.5          c0.7,1.2,1.7,2.7,2.9,4.4c0.6,0.9,1.2,2,1.7,3c1.4,2.7,2.9,5.5,6.6,6.7c0.9,0.3,1.8,0.5,2.7,0.5c0.7,0,1.3-0.1,1.9-0.5          c1.8-1.2,2.2-4.3,2.6-12.4c0.1-1.2,0-2.4,0-3.5c1.1,1.3,2.6,3.2,4,5.1c1.2,1.6,2.4,2.5,3.6,2.5c0.1,0,0.2,0,0.3,0          c1.4-0.2,2.7-1.4,3.6-3.6c0.2-0.4,0.2-0.9,0.3-1.6c1.7,1.2,3.9,2.2,5.9,2.2c0.1,0,0.1,0,0.2,0c0.5,0,1-0.3,1.3-0.7          c0.6-0.7,0.8-2.1,0.9-3.8c1.3,1,3.3,2.6,5.1,3.5c0.9,0.5,1.9,0.9,2.8,0.9c0.4,0,0.8-0.1,1.1-0.3c1.3-0.7,1.7-2.5,1.8-4.2          c0-0.4,0-0.8,0-1.3c0.6,0.3,1.2,0.5,1.7,0.5c0.2,0,0.4,0,0.5-0.1c0.8-0.2,1.3-0.7,1.5-1.1l0.1-0.1          c1.6-5.1-2.1-11.9-3.5-14.2C191.3,33.9,192.1,30.2,192.7,26.5L192.7,26.5z"></path>
							</g>
						</g>
					</g>
				</g>
			</g>
		</g>
	</g>
</g>
</svg>