<svg xmlns="http://www.w3.org/2000/svg" xmlns:xlink="http://www.w3.org/1999/xlink" version="1.1" id="Layer_1" x="0px" y="0px" viewBox="0 0 192.7 61.9" style="enable-background:new 0 0 192.7 61.9;" xml:space="preserve">
<style type="text/css">
	.st0{fill:#808080;}
</style>
<title>teeth copy</title>
<desc>Created with Sketch.</desc>
<g id="_x30_6_x5F_Scheduler">
	<g id="_x30_6_x5F_Scheduler_x5F_D_x5F_01_x5F_01" transform="translate(-688.000000, -1201.000000)">
		<g id="Group-11" transform="translate(0.000000, 392.000000)">
			<g id="Group-10" transform="translate(261.000000, 0.000000)">
				<g id="Group-Copy-3" transform="translate(0.000000, 654.000000)">
					<g id="Group-7" transform="translate(117.000000, 59.000000)">
						<g id="Group-8" transform="translate(274.958365, 0.000000)">
							<g id="Teeth_x2F_Spacing_x2F_Moderate_x2F_Off" transform="translate(35.038869, 92.889111)">
								<path id="Fill-1" class="st0" d="M190.1,31.5c-0.1,0.3-0.3,0.6-0.4,1c-1,2.6-2,4.6-5,4.5c-0.1-0.1-0.1-0.2-0.2-0.3          c1.2-2.3,1.8-5.1,2.2-7.6c0,0,0,0,0,0c1.3-1.3,2.7-2.6,3.5-3.1C190.6,27.2,190.8,30.1,190.1,31.5 M189.3,47.2          c-0.4,0.1-1.2,0.1-2-0.1c-0.2-2.5-0.7-5.5-1.7-7.9c0.2,0,0.4-0.1,0.6-0.1C187.6,41,189.4,45.9,189.3,47.2 M185.2,50.3          c-0.8-0.5-2-1.5-3.1-2.7c-0.2-1.2-0.5-2.3-0.8-3.1c-0.5-1.3-1.1-2.5-1.6-3.4c1.3-0.4,2.4-1.1,3.2-2.1c0,0,0.1,0,0.1,0          c0.1,0,0.2,0,0.3,0C185,42.7,185.4,48.3,185.2,50.3 M180.3,51.5c-0.9-0.6-2.5-1.9-3.7-3.1c0-0.1,0-0.1,0-0.1          c-0.1-3.1-1.9-6.2-2.8-7.5c0.6-0.3,1.1-0.8,1.5-1.2c1.4,0.5,2.8,2.6,4.1,5.8C180,47.2,180.3,50.1,180.3,51.5 M174,56.3          c-1.6-0.5-7.4-4-9-9.4c0-0.2-0.1-0.3-0.3-0.4c0-1.2,0.1-2.1,0.1-2.9c0-1.1,0-2-0.1-3c1.8,0.8,3.5,1.2,5.1,1.2          c0.7,0,1.3-0.1,2-0.2c0.6,1,2.5,3.9,2.6,6.8C174.6,53.9,174.2,55.8,174,56.3 M161.4,58.7c-0.6,2.8-2.1,4.2-4.3,4.2          c-1.6,0-4.8-6.5-5.9-8.6c-2-4-4.7-7.1-4.8-7.3c-0.1-0.1-0.2-0.2-0.3-0.3c0.2-1.6,0.3-3.3,0.1-5.4c0.2,0,0.5,0,0.7,0          c4.6,0,9.1-1.1,10.5-1.8c1-0.5,1.7-1.8,2.1-3.4c3.1,3,3.1,4.6,3.1,7.5C162.7,47,162.3,54.9,161.4,58.7 M142.5,52.7          c-0.2,0.6-0.4,1.3-0.5,2c-1.3,4.9-3.1,5.4-6,6.1c-1.2,0.3-3,0.2-4.3-3.6c-0.5-1.6-1.7-3.5-2.7-5.4c-0.8-1.4-1.6-2.8-2.2-4          c-0.9-2.1-0.3-5.3,0-6.3c1.7,0.1,3,0.1,4.3,0.1c0.2,0,0.5,0,0.7,0c0.2,0,0.5,0,0.7,0c1.9,0,4.3-0.2,5.9-2.1          c1.6,1,3.6,1.6,5.7,1.9C144.3,45.8,143.7,48.5,142.5,52.7 M118.4,58.3c-1.9,2.4-5.8,0.9-7,0.4c-1.4-0.6-2.4-2.6-3.5-5.1          l0-0.1c-0.1-0.2-0.2-0.4-0.3-0.6c-0.5-0.9-1.5-2.5-1.9-9.3c-0.1-1.9,0.3-3.4,1.3-4.2c2-1.7,5.8-1,5.8-1c0,0,0,0,0,0          c1,0.6,2.2,1.1,3.6,1.4c2.5,0.5,4.6,0.9,6.4,1.1C123.2,49.7,120.3,56,118.4,58.3 M110.5,23c0.3-4.3,3.3-9.4,9.2-15.7          c1.1-1.1,2.4-1.5,3.8-1.5c2.6,0,5.5,1.5,7.6,2.5c1.9,1,4.5,8.8,5.7,14v0c1.5,6.5,1.5,6.8,1.1,10.4c-0.1,0.6-0.1,1.3-0.2,2.2          c-0.4,4.5-3,4.5-5.9,4.4c-0.2,0-0.5,0-0.7,0c-3.1,0-6.5,0-14.2-1.6C110.2,36.3,110.1,29.7,110.5,23 M145,13.3          c2.1-1.6,5.1-2.9,6.7-1.4c2,2,5.3,8.1,6,13.8c0.8,6.9-0.2,11.3-1.2,11.9c-1.9,1-12.5,3-17.1-0.2c0.2-0.7,0.4-1.5,0.5-2.4          c0.1-0.8,0.2-1.6,0.2-2.2c0.4-3.9,0.4-4.5-1-10.7C140.2,19.8,143.3,14.6,145,13.3 M159.7,22.7c0.1-0.2,1.5-4.9,2.2-8.6          c1.3-6.5,2.9-8.9,3.6-8.9l0.4,0c2,0,3.1,0,4.5,4.6c0.7,2.3,1.7,4.8,2.6,7.2c1.2,3.2,2.4,6.5,2.4,7.6c0,0.6,0,1.5,0.1,2.5          c0.1,2.4,0.4,7-0.2,8.2c-0.7,1.5-1.7,3.2-3.7,3.9c-2,0.7-4.5,0.2-7.5-1.4c-0.1-0.1-0.3-0.1-0.4-0.1          c-0.7-1.3-1.9-2.6-3.8-4.3c0.3-2.5,0.1-5.5-0.2-8.1c-0.1-0.8-0.2-1.5-0.4-2.3C159.5,23.1,159.7,22.9,159.7,22.7 M180.7,17.6          c1.1-1.1,2.4-2,3-2.3c0.7,1.4,1.9,5.9,1.4,9.6c0,0.3-0.1,0.6-0.1,0.9c-0.6,4.4-1.6,12.6-6.6,13.5c0,0-0.1,0-0.1,0          c-0.6-0.6-1.1-1.1-1.7-1.4c0.4-0.6,0.6-1.1,0.8-1.5c0.7-1.6,0.6-5.1,0.4-9.2c-0.1-1-0.1-1.8-0.1-2.4c0-0.8-0.3-2.1-0.9-3.8          C177.4,20.5,179.5,18.8,180.7,17.6 M102.5,51.2c-0.8,5.2-3.6,6.8-6.3,7.6c-1.9,0.6-4.2-0.6-7.2-3.5          c-2.1-2.1-3.9-7.1-3.9-7.2c0-0.1-0.1-0.3-0.2-0.4c0.1-1.4,0.2-3.1,0.1-5h12h0.1c0,0,0.1,0,0.1,0c1.2,0,3.4-0.1,5.2-1.4          C103.5,44.8,103.3,46.2,102.5,51.2 M78.7,55.5c-0.3,0.2-0.6,0.4-0.9,0.6c-2.3,1.6-5.9,1.1-8.5-0.1c-1.9-0.9-3.3-5-3.8-7.4          c0-0.1-0.1-0.2-0.1-0.3c0.2-1.2,0.3-3,0.1-5.5c5.5-0.8,6.6-1.3,8.8-3c1.6,1.8,4.2,2.9,8.4,2.9h0.2          C83.3,52.5,80.8,54.1,78.7,55.5 M61.5,50.4c-0.5,0.4-1.1,0.8-1.7,1.5c-0.8,0.8-1.8,1.9-2.7,3c-2,2.3-4.8,5.4-6.3,5.7          c-1.1,0.2-1.8-1.1-3.1-4.1c-0.2-0.6-0.5-1.2-0.8-1.8c-1.2-2.6-1-10.4-0.8-13.7c0.9-0.9,1.5-1.7,2.1-2.4          c1.2-1.5,1.9-2.4,3.5-2.5c0.2,1.1,0.5,2.1,0.9,2.7c2,3.3,4.8,4.4,8.4,4.4c0.8,0,1.5-0.1,2.4-0.1          C63.7,48.7,63.1,49.2,61.5,50.4 M34.2,57.9c-0.9,0.7-1.2,0.6-1.2,0.6c-0.4-0.2-0.6-1.8-0.6-4.7c0-2.8,1.2-12.4,1.2-12.5          c0,0,0,0,0,0c0.3-0.2,0.6-0.5,0.8-0.7c0.7,2.5,1.6,3.8,2.9,3.9c0.3,0,0.6,0.1,1,0.1c1.5,0,3.5-0.3,5.6-1.7          c-0.1,1.6-0.1,3.7,0,5.8C42.7,49.9,37.3,55.4,34.2,57.9 M30.3,48.8c0,0-4.5,2.7-6.4,3.8c-0.3,0.2-0.6,0.3-0.7,0.3          c-0.1-0.2-0.1-0.6-0.1-1.6c0.1-1.4,1.9-4.9,3.2-7.3c0.3,0.1,0.6,0.1,1,0.1c1,0,2.3-0.3,3.8-1.1c-0.2,1.5-0.4,3.7-0.6,5.8          C30.5,48.7,30.4,48.8,30.3,48.8 M21.6,48.2c-2.3,0.9-4.8,1.8-6.2,0.4c-0.7-0.7-0.2-3.8,1.4-7.6c0.6,0,1.1-0.1,1.7-0.3          c0.5,0.7,1.1,1.2,1.9,1.6c0.5,0.2,1.1,0.4,1.7,0.4c0.5,0,1.1-0.1,1.7-0.3c0.2,0.2,0.4,0.5,0.6,0.7c-0.7,1.2-1.8,3.2-2.6,5.1          C21.8,48.2,21.7,48.2,21.6,48.2 M7.4,48.3C7.3,48.3,7.3,48.3,7.4,48.3c-0.3-0.2-0.5-1.3-0.1-3.2c0.3-1.3,1.4-3.6,1.9-4.7          c0.9-0.1,1.9-0.4,2.9-1c0.2,0.2,0.5,0.4,0.7,0.5c0.6,0.4,1.2,0.6,1.8,0.8c-0.3,0.8-0.7,1.8-1,2.9c-0.3,1-0.5,1.9-0.6,2.7          c0,0,0,0-0.1,0C11.9,46.9,8.7,48.2,7.4,48.3 M2.3,25.2l0-0.1c-0.1-0.7-0.1-1,0-1.2c0.2,0,0.6,0.2,1.2,0.6          c0.8,0.6,2.5,2.8,3.4,4c0.1,0.1,0.1,0.2,0.2,0.2c0.5,2.4,1.4,6.3,3.5,9c-1.1,0.6-2.1,0.6-3,0.2C4.6,36.6,3.1,30.3,2.3,25.2           M10.9,28.2c1.3,1.2,3.9,2.4,4,2.5c0.1,0,0.2,0.1,0.3,0.1c0.1,1.6,0.5,3.3,0.8,4.2c0.1,0.3,0.3,0.7,0.4,1.1          c0.3,0.8,0.6,1.7,1,2.6c-1.3,0.2-2.4,0-3.5-0.7c-3.4-2.2-4.6-8.5-5-10.8l-0.1-0.4c0,0,0,0,0,0C9.4,27.1,10.1,27.6,10.9,28.2           M17.4,28c0.3,0.1,0.6,0.3,0.9,0.6c0.1,0.1,0.2,0.1,0.3,0.2c0.1,1.9,0.3,3.6,0.9,4.8c0.2,0.5,0.4,1,0.7,1.5          c0.9,2.1,1.7,3.9,2.5,5.4c-0.5,0.1-0.9,0-1.2-0.1c-1.5-0.7-2.3-3.2-2.9-4.9c-0.2-0.5-0.3-0.9-0.5-1.3          C17.3,32.5,17.2,29.1,17.4,28 M21.1,20.3c0-0.5,0.1-0.9,0.1-1.3c0-0.4,0.1-0.5,0.1-0.6c0.2,0,0.8,0,2.7,1.3          c1.4,0.9,5.9,5.7,8.6,8.8c0,0,0,0,0,0c0.1,2.2,0.2,4.2,0.4,5.7c0.2,1.5,0.5,2.7,0.7,3.9c-2.9,3-5.7,4.3-7.5,3.6          c-1.1-0.5-3.2-5.2-4.2-7.5c-0.2-0.5-0.5-1.1-0.7-1.5C20.3,30.2,20.8,23.5,21.1,20.3 M34.8,19.9c0-1.5,0-2.9,0-4          c0-1.1,0.3-1.8,0.9-2.3c1.3-1,3.7-0.7,4.9-0.5c0.9,0.7,4.1,7,5.6,11.7c1.2,3.5,4.4,4.9,4.9,5.1c0,1.4,0.1,2.7,0.3,3.9          c-2.5,0.3-3.6,1.8-4.9,3.3c-0.6,0.8-1.3,1.6-2.1,2.5c0,0,0,0,0,0c0,0,0,0,0,0c-2.8,2.6-5.5,2.7-6.8,2.6          c-1-0.6-2-6.5-2.3-8.5C34.6,30.7,34.7,24.7,34.8,19.9 M53.6,20.1c0.5-5.3,2.7-8.6,4.1-8.8c2.6-0.2,4.2,0.7,6.4,2.6          c2.7,2.3,8,10.3,8.1,10.4c0.1,0.1,0.2,0.2,0.3,0.3c-0.3,1.7-0.5,3.5-0.5,5.4c0,2.8,0.2,5.6,1.2,7.8c-2,1.5-2.7,2-8.9,2.8          c-6.7,0.9-8.5-1-9.7-3.1C53.1,35.3,53,25.7,53.6,20.1 M77.4,15.1l0.2-0.6c1.2-3.4,7.7-7.6,10.9-7.6c4.7,0,8.4,3.3,11.1,9.9          c2.7,6.6,3.4,14.4,3.5,16.6c0.2,2.7-0.3,4.6-1.4,5.7c-1.3,1.4-3.4,1.4-4.5,1.4H82.7c-7.3,0-8.6-3.4-8.6-10.4          C74.1,24.1,76,18.9,77.4,15.1 M191.9,24.5c-0.5-0.7-1-0.8-1.4-0.8c-0.7,0-1.8,0.7-3.3,2c0-0.2,0-0.4,0.1-0.5          c0.6-4.2-0.9-10.2-2.1-11.6c-0.4-0.4-0.8-0.5-1.1-0.5c-1.7,0-4.5,2.8-4.8,3.1c-0.8,0.8-2.4,2-3.2,2.7          c-0.3-0.7-0.6-1.5-0.9-2.4c-0.9-2.4-1.8-4.9-2.5-7.1c-1.8-5.8-3.9-6.2-6.6-6.2l-0.4,0c-2.4,0-4.3,3.6-5.7,10.6          c-0.4,1.9-1,4.2-1.5,5.9c-1.5-4.1-3.6-7.6-5.2-9.2c-2.6-2.6-6.6-1.1-9.5,1.2c-1.7,1.3-4,5-5.4,7.5          c-1.1-4.2-3.5-11.5-6.2-12.8c-3.4-1.7-9.7-4.9-13.9-0.5c-6.3,6.7-9.6,12.2-9.8,17.1c-0.2,3.6-0.5,9.3,2.1,13.2          c-1.6,0-3.5,0.4-4.9,1.6c-0.5,0.4-0.8,0.9-1.1,1.4c0.7-1.5,1-3.4,0.9-5.8c-0.2-3-0.9-10.5-3.7-17.3          c-3-7.4-7.5-11.3-13.1-11.3c-4,0-11.3,4.7-12.9,9l-0.2,0.6c-0.8,2.1-1.7,4.7-2.4,7.5c-1.7-2.5-5.4-7.6-7.5-9.5          c-2.5-2.1-4.7-3.4-8-3.1c-2.8,0.2-5.4,4.8-6,10.7c-0.2,1.9-0.3,4.7-0.3,7.6c-0.9-0.6-2.2-1.6-2.8-3.4          c-0.5-1.6-1.8-4.7-3.1-7.4c-2.5-5.4-3.5-5.6-4-5.7c-0.7-0.2-4.5-1-6.8,0.8c-1.2,0.9-1.7,2.2-1.7,4c0,1.2,0,2.5,0,4          c0,1.7,0,3.5,0,5.4c-2.2-2.4-5.9-6.4-7.4-7.4c-1.6-1-3.5-2.1-4.9-1.4c-0.8,0.4-1.2,1.2-1.3,2.4c0,0.3-0.1,0.8-0.1,1.2          c-0.1,1.6-0.3,3.8-0.3,6c-0.9-0.5-1.9-0.6-2.7,0.1c-0.4,0.4-0.6,1.2-0.7,2.1c-0.9-0.5-2.1-1.2-2.9-1.8          c-2.1-1.8-3.7-2.4-4.8-1.8C7.4,24.9,7.2,25,7,25.2c-0.8-1-1.7-2-2.4-2.5c-1.4-1-2.7-1.3-3.7-0.7c-1.3,0.8-1,2.8-0.9,3.4          l0,0.1c0.5,3,1.9,12.2,6.5,14.4C6.8,40,6.9,40,7,40.1c-0.6,1.2-1.5,3.3-1.8,4.6c-0.3,1.7-0.5,3.9,0.5,5.1          c0.4,0.5,1,0.7,1.6,0.7c0.1,0,0.2,0,0.3,0c1.5-0.2,4.2-1.2,5.5-1.8c0.1,0.6,0.4,1.1,0.8,1.5c1,1,2.3,1.4,3.5,1.4          c1.3,0,2.5-0.4,3.6-0.7c0,0.1,0,0.2,0,0.3c-0.1,1.3-0.1,2.9,1,3.6c0.4,0.2,0.7,0.3,1.1,0.3c0.8,0,1.5-0.4,1.8-0.6          c1.4-0.8,3.9-2.2,5.4-3.1c-0.1,1-0.1,1.9-0.1,2.5c0,2.5,0,5.7,1.9,6.6c0.3,0.1,0.6,0.2,0.9,0.2c0.8,0,1.6-0.4,2.5-1.1          c2.5-2,6.4-5.9,8.6-8c0.2,1.6,0.5,3,0.9,4c0.3,0.6,0.5,1.2,0.7,1.7c1.1,2.7,2.3,5.5,4.7,5.5c0.2,0,0.5,0,0.8-0.1          c2.1-0.5,4.7-3.3,7.4-6.4c1-1.1,1.9-2.1,2.7-2.9c0.5-0.5,1-0.9,1.5-1.3c0.4-0.3,0.8-0.6,1.1-1c0.7,2.3,2.1,5.7,4.4,6.8          c2,1,3.9,1.3,5.6,1.3c2.2,0,3.9-0.6,5-1.4c0.3-0.2,0.5-0.4,0.8-0.5c1.6-1,3.4-2.2,4.4-5.7c0.8,1.7,1.9,3.9,3.3,5.2          c2.9,2.9,5.4,4.3,7.7,4.3c0.6,0,1.1-0.1,1.6-0.2c2.8-0.9,6.7-2.8,7.7-9.1c0.3,1.1,0.7,1.7,1,2.2c0.1,0.2,0.2,0.3,0.2,0.4          l0,0.1c1.4,2.9,2.5,5.3,4.6,6.2c0.8,0.4,2.8,1.1,4.8,1.1c1.7,0,3.5-0.5,4.8-2.1c1.3-1.7,2.6-4.3,3.5-7.2          c0.4-1.4,0.7-2.9,1-4.5c0.1,0.2,0.1,0.4,0.2,0.6c0.6,1.3,1.4,2.8,2.3,4.3c1,1.8,2.1,3.6,2.6,5c1.4,4.1,3.6,5.2,5.5,5.2          c0.5,0,0.9-0.1,1.4-0.2c3.1-0.7,6-1.4,7.6-7.6c0.2-0.7,0.4-1.4,0.5-2c0.4-1.3,0.7-2.6,0.9-3.7c0.9,1.2,2.5,3.3,3.7,5.8          c2.6,5.2,5.1,9.8,7.8,9.8c1.9,0,5.3-0.8,6.5-5.9c0.5-2.1,0.8-5.2,1-8.1c2.9,4.6,8,7.5,9.8,7.5c0.1,0,0.1,0,0.2,0          c1-0.1,2.1-0.9,2.1-7.2c3.1,2.7,3.9,2.7,4.2,2.7c0.5,0,0.9-0.2,1.2-0.6c0.3-0.5,0.5-1.4,0.5-2.5c1.7,1.5,2.7,1.9,3.3,1.9          c0.2,0,0.9-0.1,1.2-0.8c0.3-0.5,0.4-1.4,0.4-2.6c0.4,0.1,0.8,0.1,1.3,0.1c0.8,0,1.6-0.2,2.2-0.7c0.4-0.3,1.2-1.1-0.3-5.6          c-0.5-1.5-1.4-3.5-2.3-4.9c2-1.3,2.9-3.5,3.5-5c0.1-0.3,0.2-0.6,0.4-0.9C193,30.4,192.9,26.1,191.9,24.5"></path>
							</g>
						</g>
					</g>
				</g>
			</g>
		</g>
	</g>
</g>
</svg>