<svg xmlns="http://www.w3.org/2000/svg" xmlns:xlink="http://www.w3.org/1999/xlink" version="1.1" id="Layer_1" x="0px" y="0px" viewBox="0 0 193 68.7" style="enable-background:new 0 0 193 68.7;" xml:space="preserve">
<style type="text/css">
	.st0{fill:#808080;}
</style>
<title>teeth copy</title>
<desc>Created with Sketch.</desc>
<g id="_x30_6_x5F_Scheduler">
	<g id="_x30_6_x5F_Scheduler_x5F_D_x5F_01_x5F_01" transform="translate(-687.000000, -853.000000)">
		<g id="Group-11" transform="translate(0.000000, 392.000000)">
			<g id="Group-10" transform="translate(261.000000, 0.000000)">
				<g id="Group-Copy-2" transform="translate(0.000000, 310.000000)">
					<g id="Group-6" transform="translate(117.000000, 58.000000)">
						<g id="Group-8" transform="translate(274.042452, 0.000000)">
							<g id="Teeth_x2F_Crowding_x2F_Moderate_x2F_Off" transform="translate(34.995330, 92.903950)">
								<path id="Fill-1" class="st0" d="M190.7,44.1c-1,0.5-5.3,0.4-8.7-1.4c-1.2-3.7-3-7.3-3.8-8.8c0.5-0.3,1.1-0.6,1.7-0.8          c1.8-0.6,2.8-2.3,3.3-4.6c0.7,0.3,1.3,0.4,1.9,0.4c0.3,0,0.7,0,1-0.1c0.7,1.4,2.4,4.9,3.2,6.8          C190.4,38.4,191.2,43.2,190.7,44.1 M173.5,35.8c1,0,1.9-0.4,2.8-0.9c2,3.8,4.4,9.5,4.6,13.1C179,44.1,175.8,39.2,173.5,35.8           M180.6,53.6c-2.7,1.4-4.4,0.8-6.1-0.5c-2.1-1.6-6.5-4.6-6.7-4.7c-0.1,0-0.1-0.1-0.2-0.1c-0.4-1-0.9-2.2-1.5-3.5          c-1-2.2-2-4.3-2.7-5.8c0.3,0,0.5,0,0.8,0c1.1,0,2-0.3,2.9-0.8c1.3-0.8,2.2-2.1,2.9-3.7c0.7,1,3.3,4.7,5.7,8.6          C180.5,51,180.7,53.1,180.6,53.6 M166,55.3c-0.5,0.1-2.1,0-5.2-3c-0.6-4.3-2.4-10.1-3.6-13.4c1-0.1,2-0.5,2.9-0.9          c0.2,0.1,0.4,0.2,0.6,0.3c3.3,6.7,6.6,14.3,6.6,15.7C167.1,54.3,166.7,55.1,166,55.3 M158.6,55.9c-3.1,0-7.6-2.5-8.5-5.7          c-0.7-2.5-2.6-10-3.4-13.3c0.2,0,0.5,0,0.7,0c0.1,0,0.2,0,0.3,0c1.8-0.1,3.2-0.9,4.2-1.8c0.9,1.5,1.7,2.4,2.7,3          c0.3,0.9,1.6,4.5,2.7,8.3c0.7,2.6,1.1,4.5,1.3,5.9c-0.1,0.2,0,0.5,0.1,0.7C159,55.2,158.7,55.8,158.6,55.9 M148.3,62.1          c-1.1,0.6-2.9,0.6-4.6,0.1c-1.1-0.3-3-1.2-4-3.2c-2.1-4.1-5.5-7.7-6.5-8.7c-0.7-0.7-1.9-4.5-1.5-11.9          c3.8-0.6,6.6-2.4,8.2-3.5c0.4-0.3,0.9-0.7,1.3-1.5c1.1,1.3,2.2,2.2,3.3,2.7c0.5,1.9,2.9,11.7,3.7,14.6          c0.2,0.7,0.5,1.4,1,2.1C149.6,56.8,149.5,61.5,148.3,62.1 M129.8,47.7c-0.7,3.1-2.2,7.7-3.2,8.6c-1,0.8-3.6,2.1-7.1-2.3          c-3.2-4-5.5-7.6-5-15.9c1.6-0.2,3.5-0.7,4.8-2c0.1-0.1,0.2-0.2,0.3-0.3c3.8,2.1,7,2.8,9.9,2.8c0,0,0.1,0,0.1,0          c-0.2,3.7,0,6.7,0.4,8.8C129.9,47.5,129.8,47.6,129.8,47.7 M112.8,46.4c-0.3,3.9-1.3,9.9-2.6,11c-0.5,0.5-0.9,0.9-1.3,1.3          c-1.1,1.1-1.3,1.5-3.4,1.1c-3.5-0.6-6.4-5.1-7.7-12.2C96.6,41,95.7,37,95.4,35.5c0.5-0.4,0.8-0.8,1.1-1.3          c0.5,0.2,1,0.3,1.7,0.5c3.8,0.8,6.8,1.7,9.1,2.4c1.9,0.6,3.2,1,4.1,1c0.1,0,0.2,0,0.4,0c0.2,0,0.4,0,0.7,0          c-0.2,3.2,0.1,5.8,0.6,8C112.8,46.2,112.8,46.3,112.8,46.4 M91.7,57.7c-1.9,1.3-4.5,2.4-6.4,1.8c-1.1-0.4-1.9-1.3-2.4-2.9          c-1.6-4.8-3-14.7-3.4-17.8c2.9-0.1,5.7-0.3,7.8-0.8c0.4-0.1,0.8-0.2,1.3-0.3c1.7-0.3,3.5-0.7,4.9-1.2          c0.4,1.8,1.1,5.5,2.2,11.2C95,51.1,93.4,56.5,91.7,57.7 M78.5,47.1c-0.7,2.1-3,8-4.9,9.6c-0.2,0.1-0.3,0.3-0.5,0.4          c-1.4,1.2-2.9,2.6-4.3,2.3c-0.9-0.2-1.8-1.1-2.7-2.8c-0.2-0.4-0.5-0.9-0.7-1.3c-2.7-5.1-4.7-8.9-5.4-16.8          c2.9-0.2,5.5-0.8,7.6-2.4c0.8,1.4,2,2.3,3.6,2.4c1.5,0.1,3.6,0.2,5.8,0.2c0.1,0,0.2,0,0.3,0C77.5,40.2,77.9,43.5,78.5,47.1          C78.5,47.1,78.5,47.1,78.5,47.1 M59.4,47.2c0,0.1-0.6,9.2-2.5,13c-2.4,4.8-4.7,7-6.8,6.3c-4.2-1.3-6.5-6-6.9-13.4          c-0.4-9.2,0.8-15.4,0.9-15.9c0.6-0.3,1.2-0.7,1.8-1.1c0.9,1.1,2.1,1.7,3.5,1.9l1,0.1c2.5,0.3,5.1,0.6,7.6,0.6          C58.2,42.1,58.7,44.8,59.4,47.2C59.4,47.2,59.4,47.2,59.4,47.2 M37.4,58.7c-0.1,0.1-0.2,0.2-0.3,0.4c-0.3,0.4-1,1.2-1.2,1.2          c0,0,0,0-0.1,0c-0.7-0.8-2.5-6.8-1.7-10.7c0.7-3.6,2-8.9,2.3-10.1c0.6-0.6,1.1-1.3,1.6-2.2c0.3,0.2,0.7,0.4,1.1,0.6          c0.5,0.2,1.1,0.3,1.7,0.3c0.3,0,0.6,0,0.9-0.1c-0.4,2.4-1,7.8-0.7,15.2c0,0.8,0.1,1.5,0.2,2.2          C40.4,55.9,38.2,57.6,37.4,58.7 M26.9,57.5c-0.7,0.9-2,1.5-2.5,1.4c-0.1,0-0.2-0.3-0.3-0.7c-0.2-2.8-0.2-13.7,3.2-20.5          c0.5,0.8,1.2,1.4,2,1.9c1.2,0.6,2.6,1.3,4,1.3c0.2,0,0.4,0,0.6,0c-0.5,2.2-1.4,5.7-1.9,8.3c-0.2,0.8-0.2,1.7-0.2,2.6          c0,0-0.1,0.1-0.1,0.1C31.6,51.9,28,56,26.9,57.5 M22,51.4c-1.9,2.3-5.4,5.4-7.2,5.2c-0.9-0.1-2.1-0.5-2.9-1.5          c-0.9-1.2-1.1-3-0.7-5.2c0.8-4.2,2.9-11.6,3.6-14.2c1,0,2.1-0.3,3.4-0.8c0.9,1.5,1.9,2.6,3.2,3.2c0.6,0.3,1.2,0.4,1.9,0.4          c0.4,0,0.9-0.1,1.4-0.2C23,42.3,22.3,47.2,22,51.4C22,51.3,22,51.4,22,51.4 M4.3,46.4c-1.2,0.3-1.8,0.3-2,0.1          c-0.2-0.2-0.3-1,0.1-2.4c1.2-4.1,3.3-10.3,4.8-13.4c0.4,1,0.9,1.8,1.5,2.3c1.3,1,2.5,2,3.9,2.4c-0.5,1.8-1.5,5.1-2.3,8.3          C8.9,44.4,5.5,46,4.3,46.4 M2.4,15.9c0-3.1,0-5.8,0.2-7.1c0.9,1,2.5,3.1,3.7,5c0,0,0,0,0,0c-0.2,0.6-0.2,1.4-0.2,2.3          c0,0.9,0,2.1,0,3.4c0,3.1,0,5.8,0.3,8.1c-0.4,0-0.7,0-1-0.3C3.6,25.9,2.4,20.4,2.4,15.9 M8.9,13.6c0.4-0.2,1.2,0.1,2,0.6          c1.2,0.9,2.9,2.6,3.7,3.3c0,0.6,0,1.3,0.1,2l0.1,0.7c0.5,4.3,1.2,9.1,2.6,12.6c-1.1,0.4-1.9,0.6-2.6,0.6          c-0.1-0.1-0.2-0.1-0.3-0.2c-0.2-0.1-0.5,0-0.7,0c-1.2-0.3-2.2-1-3.6-2.1c-1.7-1.3-1.7-7.9-1.7-11.8c0-1.3,0-2.4,0-3.4          C8.2,14.5,8.6,13.7,8.9,13.6 M18.1,13.6c0.4-0.4,0.7-0.6,0.8-0.6c0.8,0.5,2.9,3.8,4.5,6.7c0.1,1.2,0.3,2.5,0.6,3.9          c0.2,1.1,0.4,2.2,0.5,3.2c0.6,3.6,1.1,6.3,1.7,8.3c-1.5,1.1-2.8,1.4-3.9,0.9c-3.9-1.7-5.1-12.5-5.5-16l-0.1-0.7          c-0.1-0.7-0.1-1.3,0-1.9c0-0.1,0-0.2,0-0.4C16.9,15.5,17.5,14.3,18.1,13.6 M26,11.8c1,0.6,4,3.8,6.4,6.7          c0,1.3,0.1,2.6,0.3,3.7c0.1,0.4,0.1,0.8,0.2,1.3c0.6,4,1.4,9.1,3.5,12.1c-0.8,1.7-1.6,2.7-2.5,3c-0.9,0.3-2.1-0.1-3.6-0.9          c-2.1-1.1-2.6-4.5-3.8-11.1c-0.2-1-0.3-2-0.5-3.2c-0.2-1.4-0.4-2.6-0.5-3.7c0-0.1,0-0.3,0-0.5C25,14.3,25.7,12.3,26,11.8           M39.4,4.6c2.7-0.6,5.9,6.1,7.1,9.4c0,0,0,0.1,0.1,0.1c-0.6,1.6-1.1,3.2-1.4,4.6c-1,4.1-2.2,11.2-0.5,15.5          c-2,1.5-3.6,2-4.8,1.5c-3.1-1.2-4.2-8.3-4.8-12.6c-0.1-0.4-0.1-0.9-0.2-1.3C33.6,14,36.4,5.3,39.4,4.6 M53.8,6.1          c1.4-0.4,2.7,0.8,4.6,2.7c0.2,0.2,0.4,0.4,0.6,0.6c1.5,1.5,5.5,7.8,6.8,10c0,0,0,0,0.1,0.1c-0.1,2.6-0.2,5.2-0.2,6.7          c0,2.6,0.2,5.5,1,7.9c-3.7,3.1-10.3,2.4-16.2,1.8l-1-0.1c-1-0.1-1.7-0.5-2.3-1.3c-1.7-2.4-1.7-8.1,0-15.3          C48.5,13.5,52.2,6.6,53.8,6.1 M68.9,10.9c0.5-2.7,2.3-3.9,7-4.8C80.2,5.2,82,6,84.9,7c1.7,0.6,5.6,6.7,7.8,10.8          c0,0.1,0.1,0.1,0.2,0.2c-0.1,0.4-0.1,0.8-0.2,1.1c-0.3,1.9-0.6,3.4-0.7,4.1c-0.4,1.8-0.7,3.9-0.1,6c0.3,1.3,1.1,2.8,2.7,3.9          c-0.4,1.3-3.7,1.9-6.4,2.5c-0.4,0.1-0.9,0.2-1.3,0.3c-3.9,0.8-11.1,0.9-15.5,0.5c-2.2-0.2-3.5-3.9-3.5-10.2          C67.9,22.8,68.2,14.4,68.9,10.9 M97.6,5.4c1-2.6,5.7-3.1,13-3.1c6.8,0,8.4,12.7,8.4,12.9l0,0.1c0.4,2.1,0.3,5.3,0.1,9.1          c-0.1,2.2-0.2,4.5-0.2,6.9c0,1.5-0.4,2.6-1.2,3.4c-1.7,1.6-4.8,1.5-6.1,1.4c-0.2,0-0.3,0-0.4,0c-0.6,0-1.8-0.4-3.5-0.9          c-2.2-0.7-5.3-1.6-9.3-2.5c-2.6-0.5-4.1-1.8-4.7-3.9c-0.5-1.9-0.1-4,0.1-5c0.2-0.8,0.4-2.3,0.7-4.2          C95.5,15,96.7,7.6,97.6,5.4 M127.6,8.2c1.1-0.7,2.8-1.6,4.1-1.9c1.5-0.3,1.8,0.2,1.9,0.4c0.8,1.4,1.7,4.2,2.6,7.2          c0.4,1.3,0.8,2.6,1.2,3.9c3,9,2.7,14.2,1.1,15.3c-1.6,1.1-4.2,2.9-7.8,3.2c0,0-0.1,0-0.1,0c-0.2,0-0.3,0-0.4,0.1          c-2.7,0.2-5.8-0.4-9.6-2.5c0.3-0.8,0.5-1.7,0.5-2.8c0-2.4,0.1-4.6,0.2-6.8c0.1-3.7,0.3-6.8-0.1-9.1          C122.5,13.4,125.4,9.5,127.6,8.2 M142.8,11.2c1.2-3.7,3.8-7.5,4.5-7.9c0.1,0,0.2,0,0.3-0.1c0.8-0.2,2.1-0.6,3-0.1          c0.6,0.4,1.1,1.1,1.4,2.3c1.6,6.1,2.1,11.6,1.4,16.2c-0.2,1-0.3,2-0.4,2.9c-0.6,4.1-1,6.8-1.8,8.3c-0.3,0.6-1.7,2-3.6,2          c-2,0.1-4-1.3-5.8-3.9c0.4-2.7-0.1-6.9-2.3-13.7c-0.2-0.6-0.4-1.1-0.6-1.7C140.1,15,141.9,14,142.8,11.2 M160.2,12          c0.6-1.3,2.1-3.4,2.9-4c0.6,0.9,1.5,4,0.9,9.2c-0.5,4.7-1.8,17.1-4.5,18.5c-1.3,0.7-2.4,1.1-3.3,0.8          c-0.9-0.3-1.9-1.4-2.9-3.3c0.8-1.8,1.2-4.4,1.8-8.5c0.1-0.9,0.3-1.8,0.4-2.8c0.3-1.7,0.4-3.5,0.3-5.5          C156.8,15.8,159.5,13.6,160.2,12 M169,11.9c0.4,1.9,0.4,7.1,0.4,10.8c0,3.2,0,11.6-3.4,13.6c-1,0.6-2.4,0.6-4,0          c2.1-2.9,3.2-9.8,4.2-18.9c0-0.5,0.1-0.9,0.1-1.4c0,0,0,0,0-0.1C167.2,14.3,168.3,12.7,169,11.9 M176.5,11.9          c0.5-1.5,1.3-3.6,1.8-4.5c0.9,1.5,2.6,5.8,2.9,10.1c0.3,4,0.8,12.4-2.2,13.4c-1.1,0.4-2,1-2.9,1.5c-2.2,1.3-3.3,2-5.5-0.5          c0.7-2.9,0.8-6.3,0.8-9.3c0-1.5,0-2.9,0-4.2C172.6,17.6,175.5,14.7,176.5,11.9 M187.8,8.1c0.2,1,0.5,3,0.5,5.9          c0,0.2,0,0.4,0,0.7c0,2.6,0.1,10.4-2.4,11.8c-0.2,0.1-0.9,0.5-2.4-0.2c0.3-2.6,0.1-5.7-0.1-8.8c-0.1-1.2-0.3-2.4-0.5-3.7          C183.7,12.8,186.3,9.6,187.8,8.1 M191.2,34.7c-0.9-2.1-2.7-5.8-3.4-7.1c2.3-2.4,2.6-7.9,2.6-13c0-0.2,0-0.5,0-0.6          c0-7.6-1.4-8.2-1.9-8.4c-0.3-0.1-1-0.3-1.8,0.4c-1,1-3.2,3.5-4.6,5.2c-0.2-0.6-0.4-1.3-0.6-1.9c-1.7-4.3-2.7-4.3-3.2-4.3          c-1.7,0-2.5,2.4-3.9,6.3c-0.5,1.5-1.9,3.2-3,4.4c-0.2-4.5-0.7-6.2-2.2-6.2c-0.8,0-1.8,0.8-3,2.5c-0.3-3.7-1.4-5.9-2.7-6.2          c-2.2-0.5-5.3,5.4-5.3,5.5c-0.3,0.7-1.4,1.7-2.4,2.7c-0.2-2.8-0.8-5.8-1.6-9c-0.5-1.7-1.3-3-2.5-3.6c-1.8-1-3.7-0.4-4.7-0.1          c-0.1,0-0.2,0.1-0.2,0.1c-0.3,0.1-1.3,0.4-3.3,3.6c-1.1,1.9-2.1,4-2.6,5.7c-0.6,1.9-1.7,2.6-2.4,2.9c0,0,0,0,0-0.1          c-1-3.1-1.9-6.1-2.8-7.7c-0.6-1-1.8-2-4.3-1.4c-1.3,0.3-2.7,0.9-4.7,2.1c-2,1.2-4.4,4-5.8,6c-0.3-1.3-0.7-2.9-1.4-4.6          c-2-5-5-7.6-8.7-7.6c-8.4,0-13.5,0.7-15,4.5c-0.7,1.7-1.5,5.9-2.2,10.1C91.5,11.4,88,5.9,85.6,5c-3-1.1-5.3-2-10.1-1.1          c-3.7,0.7-7.8,1.9-8.7,6.5c-0.3,1.3-0.5,3.3-0.6,5.4c-1.7-2.6-4.3-6.6-5.6-7.9c-0.2-0.2-0.4-0.4-0.6-0.6          c-1.9-1.9-4.1-4.1-6.8-3.3c-1.4,0.4-3,2.3-4.7,5.7c-0.3,0.5-0.5,1-0.7,1.5c-1.5-3.5-4.7-9.8-8.8-8.8          c-3.7,0.9-5.8,6.9-6.4,12.9c-2.5-2.8-5.1-5.6-6.3-5.7c-0.6-0.1-1.2,0.2-1.7,0.6c-0.8,0.8-1.2,2.5-1.3,4.9          c-1.7-2.7-3-4.1-4-4.2c-0.8-0.1-1.7,0.3-2.4,1c-0.7,0.7-1.4,1.7-1.8,3.1c-0.9-0.8-1.9-1.8-2.8-2.5c-1.1-0.9-2.9-1.6-4.3-0.9          c-0.1,0.1-0.2,0.1-0.3,0.2C3.4,5.6,2.5,6,1.8,6.3c-1.5,0.6-1.5,2.9-1.5,9.6c0,3.6,0.8,10.9,4,13.1c0.3,0.2,0.7,0.4,1.1,0.5          c-1.9,3.7-4.1,10.9-5,13.9c-0.6,2.1-0.5,3.6,0.4,4.6C1.3,48.5,2,48.7,3,48.7c0.6,0,1.2-0.1,1.9-0.3c1.1-0.3,3.2-1.3,4.8-2          c-0.3,1.1-0.5,2.2-0.7,3.1c-0.5,2.9-0.2,5.2,1.1,6.9c1,1.4,2.5,2.2,4.4,2.4c0.1,0,0.3,0,0.4,0c1.5,0,3.4-1,5.7-3          c0.5-0.4,0.9-0.8,1.3-1.2c0,1.5,0,2.8,0.1,3.6c0.1,1.8,1.2,2.4,1.8,2.6C24,61,24.2,61,24.5,61c1.5,0,3.2-1.2,4-2.1          c0.7-0.9,2.3-2.8,3.5-4.1c0.4,3.4,1.5,6.6,2.7,7.3c0.4,0.3,0.8,0.4,1.2,0.4c1.3,0,2.2-1.2,2.9-2.1c0.1-0.1,0.2-0.2,0.3-0.3          c0.5-0.6,1.5-1.5,2.4-2.2c1.4,7.1,4.9,9.8,7.9,10.7c0.5,0.2,1,0.2,1.5,0.2c4.1,0,6.9-5.6,7.9-7.6c1.2-2.4,1.9-6.5,2.3-9.6          c0.7,1.6,1.5,3.1,2.4,4.8c0.2,0.4,0.4,0.8,0.7,1.3c1.2,2.3,2.6,3.6,4.2,3.9c0.2,0,0.5,0.1,0.7,0.1c2.1,0,3.9-1.6,5.3-2.9          c0.2-0.1,0.3-0.3,0.5-0.4c1.6-1.4,3.2-4.7,4.3-7.2c0.5,2.3,1,4.5,1.6,6.2c0.7,2.2,2,3.6,3.8,4.2c0.6,0.2,1.2,0.3,1.9,0.3          c2.7,0,5.3-1.6,6.4-2.3c1.8-1.2,3.1-4.4,3.9-7.2c2.5,7.8,6.6,9.4,8.4,9.7c0.6,0.1,1.1,0.1,1.5,0.1c1.9,0,2.7-0.8,3.8-1.9          c0.3-0.3,0.7-0.7,1.1-1.2c1.5-1.4,2.4-5.4,2.8-8.5c0.9,1.7,2.1,3.3,3.3,4.8c2.3,2.9,4.6,3.9,6.6,3.9c1.4,0,2.6-0.5,3.5-1.3          c0.3-0.2,1.7-1.6,3.2-6.9c0.2,0.3,0.4,0.5,0.5,0.7c0.9,0.9,4.2,4.3,6.1,8.2c1,2,2.9,3.6,5.3,4.3c1,0.3,2,0.5,3,0.5          c1.2,0,2.4-0.2,3.3-0.7c2.2-1.2,2.4-5.4,2.2-8.6c2,1.6,4.7,2.6,7.1,2.6c0.7,0,1.3-0.3,1.7-0.9c0.3-0.4,0.5-1.1,0.5-1.9          c1.8,1.5,3.3,2.2,4.7,2.2c0.3,0,0.6,0,0.8-0.1c1.3-0.3,2.3-1.3,2.9-2.9c0.1-0.3,0.2-0.8-0.4-2.7c1.4,1,3.2,2.2,4.3,3          c1.5,1.2,3,1.7,4.6,1.7c1.2,0,2.5-0.4,3.9-1.1c0.3-0.2,0.8-0.5,0.9-1.3c0.1-0.6,0-1.5-0.3-2.5c0.9-1.5,0.8-3.9,0.3-6.4          c2,0.7,4.3,1.2,6.2,1.2c1.3,0,2.3-0.2,3-0.6C194.5,44.2,191.7,35.8,191.2,34.7"></path>
							</g>
						</g>
					</g>
				</g>
			</g>
		</g>
	</g>
</g>
</svg>