<svg xmlns="http://www.w3.org/2000/svg" xmlns:xlink="http://www.w3.org/1999/xlink" version="1.1" id="Layer_1" x="0px" y="0px" viewBox="0 0 192.9 60.5" style="enable-background:new 0 0 192.9 60.5;" xml:space="preserve">
<style type="text/css">
	.st0{fill:#9B9B9B;}
</style>
<title>Fill 1</title>
<desc>Created with Sketch.</desc>
<g id="Symbols">
	<g id="Teeth_x2F_Spacing_x2F_Extreme_x2F_On" transform="translate(0.000000, -5.000000)">
		<path id="Fill-1" class="st0" d="M190.6,25.5c-0.5,3.6-3.1,8.6-5.8,8.2c-0.6-0.1-1.2-0.1-1.8-0.2c-3-0.3-5-0.6-5.6-1.5    c2-2,2.7-5.8,3.2-8.5c0.1-0.5,0.2-0.9,0.2-1.2c0.1-0.7,0.2-1.4,0.1-2.1c0.8-0.5,3.3-2.1,4.7-3.4c0.2-0.2,0.4-0.4,0.6-0.6    c1.2-1.1,1.8-1.6,2.8-1.7C190.3,15.7,191.1,22.6,190.6,25.5L190.6,25.5z M185.2,45.5c-0.7,0.6-2.5,2.2-3.8,2c-0.1,0-0.6-0.1-1-0.9    c0,0-0.1-0.1-0.1-0.1c0.2-1.2,0.4-2.9,0.5-5.1c0.1-2.4,0.1-4.6,0.1-6c0.6,0.1,1.2,0.1,1.9,0.2c0.6,0.1,1.1,0.1,1.7,0.2    c0.2,0,0.4,0,0.5,0c0.1,0,0.3,0,0.4,0C185.9,40.9,185.7,44.8,185.2,45.5L185.2,45.5z M177.5,48.3c-1.6,0.7-2.6,0.8-3.3,0.5    c-0.5-0.2-0.9-0.8-1.2-1.7c0.6-4.5-1.1-12.3-1.8-14.8l0,0c1.2,0.7,2.3,1,3.3,1c0.4,0,0.8-0.1,1.2-0.2c0.6,1.1,1.7,1.6,3.2,2    C179,41.6,178.4,47.7,177.5,48.3L177.5,48.3z M170.1,48.4c-3,0.1-5.6-3-6.4-3.9c-0.1-3.4-0.7-7.5-1.1-9.8c1,0.3,1.8,0.4,2.6,0.4    c0.3,0,0.6,0,0.8,0c1.2-0.1,2.4-0.5,3.3-1c1,4.4,1.8,9.9,1.5,12.7c-0.1,0.2-0.1,0.4-0.1,0.6c-0.1,0.4-0.2,0.8-0.4,1    C170.3,48.4,170.2,48.4,170.1,48.4L170.1,48.4z M161.2,48.2c-0.5,0.7-2,2.9-2.9,3.1c-0.1,0-0.1,0-0.3-0.1    c-0.9-0.7-4.3-5.4-6.2-8.2c0,0,0,0,0,0c0.2-2.3,0.3-4.5,0.4-5.6c0.8,0.4,1.4,0.6,1.8,0.7c0.2,0,0.3,0,0.5,0c1.9,0,3.6-1.8,4.7-5    c0.4,0.3,0.7,0.5,1.1,0.7c0,0.1,0,0.3,0,0.4c0.7,3.6,1.2,7.7,1.3,10.5c0,0.2,0,0.3,0,0.5C161.6,46.6,161.5,47.7,161.2,48.2    L161.2,48.2z M143.1,57.2c-1.6,0-5.3-3.3-6.5-8.5c-0.1-0.6-0.3-1.2-0.4-1.8c-0.9-4-1.3-5.6-0.9-7c0.5-1.8,2.3-4.4,3.8-5    c2.2-0.4,3.3-1.8,3.9-3.5c1.7,1.2,4.6,3.2,7.1,4.7c0,0.1,0,0.1,0,0.2c-0.1,3.1-0.6,11.7-1.7,14.5    C146.9,54.6,144.4,57.2,143.1,57.2L143.1,57.2z M133.1,43.2c-0.7,2.3-3,8.6-4.5,10.4c-1.1,1.3-3.7,4.4-5.4,4.3    c-1.3-0.1-4.1-3.8-5-6.9c-0.8-2.9-0.2-7.1,0.9-8.8c1.1-1.8,4.8-5,7.6-4.7c3,0.3,5.2,1.5,6.3,2.5c-0.2,0.9-0.1,1.9,0.1,3.1    C133.2,43.1,133.1,43.2,133.1,43.2L133.1,43.2z M123.2,28C123.2,28,123.2,27.9,123.2,28c-0.1-0.5-0.1-0.9-0.1-1.3l0-0.3    c0-1.1-0.1-2.4-0.3-3.7c0,0,0-0.1,0.1-0.1c0-0.1,3.4-7.2,5.7-9.6c2.3-2.3,4.2-4.2,5.8-4.4C135.5,8.5,136,9,138,14    c2.1,5.3,3.5,10.1,3.5,11.8c0,0.1,0,0.3,0,0.5c0,3.2-0.3,6.2-2.8,6.5c0,0,0,0,0,0c0,0,0,0,0,0C133.5,33.5,126.3,33.7,123.2,28    L123.2,28z M117.5,34.3c-0.3,0-0.7,0.1-1.1,0.2c-4.2,0.7-14,2.3-17.4-1.2c-1.1-1.1-1.4-2.7-1.1-4.8l0-0.2c0-2.7,0.4-10.2,2-12.9    c1.5-2.5,5.4-8.3,9.8-8.3c0.1,0,0.1,0,0.2,0c4.3,0.2,6.1,1.6,8,6.3c2,4.8,3.1,9.6,3.1,12.9l0,0.3C121,30.5,120.8,33.7,117.5,34.3    L117.5,34.3z M107.9,45.4c0,0,0.2,4.3-0.2,9c-0.3,4.1-1.7,4.6-3.9,4.9c-1.8,0.3-4.5-4.4-5.3-5.9l0-0.1c-1.1-2-2.2-5.9-2.9-10.9    c-0.1-0.8,0-1.4,0.4-1.9c1.2-1.6,4.8-2.1,7.7-2.5c0.7-0.1,1.3-0.2,1.9-0.3c0.2,0,0.3,0,0.5,0c0.6,0,0.8,0.2,1,0.4    c1.2,1.1,1,4.7,0.9,6.6L107.9,45.4L107.9,45.4z M86.4,60.1c-1.1,0-2.2-2.1-3-3.6l-0.2-0.3c-0.9-1.6-1.9-8.4-2.6-14.5    c-0.1-0.9,0.1-1.5,0.5-1.9c1.4-1.4,5.3-0.9,7.2-0.7l0.2,0c2.2,0.3,4.1,1.1,5,1.5c-0.2,0.7-0.3,1.4-0.2,2.3    c0.3,2.4,0.8,4.6,1.3,6.5C92.4,57.4,87.5,60.1,86.4,60.1L86.4,60.1z M74.2,30.6l-0.2-0.5c-1-2-0.3-8.7,0-12.3    c0.1-1.2,0.2-2.2,0.3-3c0.1-2.5,4.3-5.3,7.2-6.4c0.5-0.2,1-0.3,1.6-0.3c1.5,0,3.3,1.1,7.1,4.9c4.6,4.6,4.9,8.1,5.4,13.4l0,0.5    c0.2,2.7-0.2,4.6-1.2,5.8c-1.8,2-5.4,2.1-9.3,2.2c-0.7,0-1.5,0-2.3,0.1C76.5,35.4,75.4,33.2,74.2,30.6L74.2,30.6z M71,28    c-0.8,2.6-2.5,4.7-4.6,5.6c-2.1,1-7.6,1.7-11.2,1.2c-2-0.3-3-3-3-8.3c0-2.8,1.1-6.9,2.6-9.9c0.7-1.4,2.3-2.4,9.2-0.5    c2.9,0.8,5.9,5.5,6.9,7.2c0.1,0.2,0.3,0.4,0.6,0.5c-0.1,1.4-0.1,2.7,0,3.8C71.2,27.7,71.1,27.8,71,28L71,28z M47.7,31.9    c-1,0-2.1,0.8-2.3,4.4c-0.4,0.1-0.9,0.2-1.3,0.3c-1.2,0.4-2,1.2-2.5,2.2c-2.9,0.5-4-0.4-5.1-2.3c-1-1.8-3.1-14.7-2.7-18.5    c0.3-3.1,1.1-5,2.4-5.8c0.4-0.2,1.4-0.2,4,2.7c0.7,0.8,1.5,1.8,2.3,2.9c1.8,2.4,3,3.9,4.1,4.4c1.1,0.5,2.8,1.2,3.8,1.6    c-0.2,1-0.3,2-0.3,2.8c0,1.1,0,3.1,0.4,5C49.5,31.7,48.3,31.9,47.7,31.9L47.7,31.9z M56,43.7c0.1,0,0.1,0.1,0.2,0.1    C56,45.7,56.7,48,57.5,50c-2.2,1.8-3.4,6.1-4.3,9.3L53.1,60c-0.8,2.8-3.3,3.3-5.2,3.3c-1.6,0-3.9-4-4.9-8.3    c-0.9-3.9-0.7-12,0.3-14.8c0.2-0.7,0.7-1.2,1.5-1.5c1.4-0.6,3.4-0.3,4.5,0.3C51.2,40,55.9,43.7,56,43.7L56,43.7z M59.1,42.7    c3.3-1.6,4.3-2,6-2c0.3,0,0.6,0,0.8,0c0.3,0,0.6,0,0.9,0c2.9,0,5,0.3,5.6,4.5c1,6.3,0.8,13.2,0.1,14.4C71.8,60.9,70,63,68,62.6    c-1.7-0.3-5.2-5.7-7.1-10.3c-0.2-0.4-0.3-0.8-0.5-1.2C59.2,48.4,57.1,43.7,59.1,42.7L59.1,42.7z M40.2,49.4    c-0.1,0.1-2.8,2.3-4.7,5.1c-0.2,0.3-0.4,0.6-0.6,0.9c-0.8,1.2-1.8,2.7-2.3,3.1c-0.8-1-2.6-5.4-2.6-8.4c0-6.6,1.4-11.3,4.2-13.6    c0.2,0.5,0.3,1,0.5,1.2c1,1.8,2.5,3.5,5.6,3.5c0.2,0,0.5,0,0.7,0c-0.4,2.2-0.6,5.2-0.6,8.2C40.3,49.3,40.2,49.3,40.2,49.4    L40.2,49.4z M25,52.8c-0.8-1.4-2.2-6.8-0.1-12.2c0.5,0.1,1,0.2,1.6,0.2c0.8,0,1.7-0.1,2.7-0.4c-0.9,2.5-1.3,5.6-1.4,9.3    C26.8,51,25.7,52.3,25,52.8L25,52.8z M15.7,48.4c-1.8-1.3-3.6-5.9-2.7-8.1c0.9-2.2,2.4-4.3,2.7-4.7c0.6,0.1,1.1,0.1,1.7,0.1    c0.2,0,0.5,0,0.7,0c0.6,1.2,1.2,2.3,2,3c0.8,0.8,1.8,1.2,2.8,1.2c-0.8,2.2-1.1,4.3-1.1,6.2C19.8,47.6,16.7,49.2,15.7,48.4    L15.7,48.4z M6.4,37.3c0.7-3.6,1.4-5.7,1.9-6.8c0.3,1,0.8,1.8,1.3,2.3c1,1,2.3,1.8,3.8,2.3c-0.6,0.9-1.5,2.4-2.3,4.1    c-1.9,1-4.1,2-5,2.2C6,41,5.9,39.7,6.4,37.3L6.4,37.3z M7.4,27.9c-0.1,0-0.3,0-0.4,0c-1,0-3.2,0-4.5-0.4c-0.5-0.2-0.3-2.4-0.2-3.4    c0.1-0.6,0.1-1.3,0.1-1.8c0-1.9,0.4-2.7,0.6-2.9c0.6,0.1,2.1,1.1,3.5,2.2c0.1,0.1,0.3,0.2,0.4,0.2c0,1.1,0.2,3.6,0.7,6    C7.5,27.8,7.5,27.9,7.4,27.9C7.4,27.9,7.4,27.9,7.4,27.9L7.4,27.9z M9.2,20.3c0.2,0,0.5,0.1,0.8,0.2c0.2,0.1,0.3,0.1,0.5,0.2    c0.6,0.2,3.1,2,5,3.6c0.1,0.1,0.1,0.1,0.2,0.1c0,1.4,0.4,5.6,1.6,9.2c-2.6,0-4.9-1.1-6.1-2.3c-1.2-1.2-2.1-6.9-2.1-10.1    C9.1,20.7,9.1,20.4,9.2,20.3L9.2,20.3z M18.7,19.8c0.5,0.2,1.8,1.1,2.8,2.1c0,0,0.1,0.1,0.2,0.1c0,0,0,0.1,0,0.1    c-0.1,1.2-0.3,2.6-0.6,4c-0.4,2.4-0.8,4.8-0.6,6.6c0,0.2,0.1,0.5,0.1,0.8c0.1,0.9,0.2,2.1,0.5,3.2c-2.3-2.9-3.3-10.2-3.3-12.3    C17.8,22.1,18.3,20.3,18.7,19.8L18.7,19.8z M26.9,17.2c0.8,0.4,3,2.8,4.6,4.9c0,0,0.1,0.1,0.1,0.1c0.3,3.8,1.1,8.7,1.8,12    c-1.3,0.9-2.4,2.1-3.2,3.6c-0.1,0-0.2,0-0.3,0c-2.6,0.9-4.4,0.9-5.6,0.2c-1.4-0.9-1.6-3.1-1.8-4.7c0-0.3-0.1-0.7-0.1-0.9    c-0.2-1.4,0.2-3.7,0.6-5.9c0.3-1.5,0.5-3,0.6-4.3C24,19.5,26.2,17.5,26.9,17.2L26.9,17.2z M97.4,34.8c0.7,0.7,1.6,1.3,2.6,1.7    c-2.1,0.4-4.1,1-5.3,2.3c-0.7-0.4-3-1.4-5.5-1.7c2.7-0.3,5.1-0.9,6.7-2.7c0.2-0.2,0.4-0.5,0.5-0.7C96.8,34,97.1,34.4,97.4,34.8    L97.4,34.8z M142.8,21.2c1.2-2,4.5-7.5,5.9-8.9c0.4-0.4,0.8-0.8,1.1-1.2c1.2-1.3,1.9-2.1,2.9-2.1c1.3,0,4.9,2.5,5.6,8.5    c0.7,6.7-0.1,11.3-0.7,13.4c-0.7,2.5-1.9,5.2-3.3,5c-1.4-0.2-7.1-4-10.9-6.7c0.1-1.1,0.1-2.2,0.1-2.9c0-0.2,0-0.3,0-0.4    C143.6,24.8,143.3,23.1,142.8,21.2C142.7,21.2,142.8,21.2,142.8,21.2L142.8,21.2z M164.7,16.1c1.4-2.6,2.2-3.5,2.5-3.9    c0.7,0.5,2.5,2.6,2.5,6.6c0,1.2,0,2.5,0.1,3.8c0.1,3.3,0.2,7.9-0.5,8.8c-0.4,0.5-1.6,1.3-3.3,1.4c-1.4,0.1-3.6-0.1-6-2    c0.6-2.5,1.1-6.2,0.8-11.1C161.7,19.1,163.9,17.5,164.7,16.1L164.7,16.1z M171.7,16.7c1-1.1,2.9-2.6,4-2.4    c1.5,0.4,3.8,4.6,3.2,7.5c-0.1,0.4-0.2,0.8-0.2,1.3c-0.4,2.4-1.2,6.9-3.3,7.8c-0.9,0.4-2.1,0.1-3.5-0.9c0.2-1.8,0.2-4.3,0.1-7.5    c0-1.2-0.1-2.5-0.1-3.7C171.8,18.1,171.7,17.4,171.7,16.7C171.7,16.7,171.7,16.7,171.7,16.7L171.7,16.7z M192.6,19    c-0.3-2.1-0.8-4.7-1.8-5.9c-0.5-0.6-1.1-0.7-1.4-0.7c-2,0-3.1,1-4.4,2.2c-0.2,0.2-0.4,0.4-0.6,0.6c-1,0.9-2.7,2-3.7,2.7    c-0.8-2.7-2.5-5.2-4.4-5.6c-1.9-0.5-3.9,1-5.1,2.1c-1-2.8-2.8-4.2-3.9-4.2c-1.3,0-2.5,1.7-4.3,5c-0.4,0.6-1.3,1.5-2.3,2.2l0,0    c-0.8-6.8-5-10.5-7.7-10.5c-2,0-3.2,1.3-4.5,2.8c-0.3,0.4-0.7,0.8-1.1,1.1c-1.3,1.3-3.9,5.4-5.3,7.8c-0.6-1.8-1.3-3.6-1.9-5.2    c-1.9-4.9-2.9-7-5.8-6.8c-2.4,0.2-4.5,2.3-7.1,5c-1.7,1.7-3.7,5.4-5,7.8c-0.6-2.1-1.3-4.3-2.2-6.6c-2.3-5.5-4.8-7.5-9.9-7.7    c-5.4-0.2-9.8,5.7-11.9,9.3c-0.7,1.2-1.2,3-1.5,4.8c-0.8-2.5-2.2-4.9-4.8-7.6c-4.7-4.7-7.3-6.5-11-5.1c-3.2,1.2-8.4,4.5-8.6,8.3    c0,0.7-0.1,1.7-0.3,2.9c-0.1,0.9-0.2,1.9-0.3,2.8c-1.4-2.2-4.1-5.6-7.1-6.4c-3.3-0.9-9.5-2.6-11.6,1.6c-0.9,1.8-1.6,3.9-2.1,5.9    c-0.9-0.4-2.4-1-3.3-1.4c-0.7-0.3-2.2-2.3-3.3-3.8c-0.8-1.1-1.7-2.2-2.4-3c-1.3-1.4-4.2-4.6-6.7-3.1c-1.9,1.2-3,3.6-3.4,7.4    c0,0.3,0,0.5,0,0.9c-3.3-3.8-4.3-3.7-4.7-3.7c-1.4,0.1-3.5,2.1-4.6,4.6c-1.2-1-2.7-2.1-3.8-2c-1.6,0.2-2.3,2.4-2.5,4.2    c-1.5-1.2-3.8-2.9-4.8-3.2c-0.1,0-0.3-0.1-0.4-0.1c-0.8-0.3-1.8-0.6-2.7,0c-0.3,0.2-0.6,0.6-0.7,0.9c-1.3-1-3.6-2.6-4.9-2.1    c-1.4,0.5-2.1,2.2-2.1,5c0,0.5,0,1-0.1,1.7c-0.2,2.2-0.4,4.8,1.6,5.6c1.3,0.5,3.1,0.5,4.4,0.6c-0.7,1.6-1.3,3.8-1.9,6.8    c-0.8,3.8-0.4,6,1,6.6c0.1,0,0.3,0.1,0.5,0.1c0.6,0,1.9-0.3,4.8-1.7c0,1.1,0.2,2.3,0.7,3.5c0.7,2.1,1.9,3.8,3.1,4.8    c0.6,0.4,1.3,0.6,2,0.6c1.9,0,4-1.2,5.4-2c0.2,1.9,0.7,3.5,1.1,4.5c0.5,1,0.9,1.6,1.5,1.8c0.1,0,0.3,0.1,0.5,0.1    c0.6,0,1.5-0.4,3.2-2.3c0.7,3.4,2.4,7.3,3.8,7.8c0.2,0.1,0.4,0.1,0.6,0.1c1.4,0,2.6-1.8,4.2-4.1c0.2-0.3,0.4-0.6,0.6-0.9    c1-1.5,2.2-2.8,3.1-3.6c0.1,1.3,0.3,2.4,0.5,3.4c0.8,3.9,3.5,10,7,10c3.8,0,6.4-1.8,7.3-4.9l0.2-0.6c0.7-2.5,1.7-6.1,3.1-7.8    c0.2,0.3,0.3,0.7,0.4,1c0,0.1,4.6,10.8,8.7,11.6c0.3,0.1,0.6,0.1,1,0.1c2.6,0,4.8-2.2,5.9-4.2c1.1-2,1-10,0.1-15.8    c-1-6.4-5.4-6.3-8.7-6.3c-0.3,0-0.5,0-0.8,0c-2.2,0-3.6,0.6-6.9,2.3c-0.5,0.2-0.9,0.6-1.2,0.9c-1.2-0.9-4.9-3.7-6.6-4.7    c-0.7-0.4-1.7-0.7-2.8-0.8c0.1-1,0.2-1.8,0.4-2.2c0.9,0,2.3-0.3,3.1-0.4c0.7,1.7,1.9,3,3.8,3.3c0.9,0.1,1.9,0.2,3,0.2    c3.4,0,7.4-0.6,9.4-1.5c1.9-0.9,3.5-2.5,4.7-4.4l0,0l0.2,0.5c1.3,2.6,2.7,5.5,8.8,5.7c-0.5,0.2-1,0.5-1.3,0.9    c-0.9,0.9-1.3,2.1-1.1,3.7c0.3,3,1.5,12.8,2.8,15.3l0.2,0.3c1.1,2.1,2.6,4.7,4.9,4.7c2.1,0,6.7-2.8,9.4-9.4    c0.3,0.7,0.5,1.3,0.8,1.7l0,0.1c1.4,2.5,4,6.9,7.1,6.9c0.1,0,0.3,0,0.4,0c3.3-0.5,5.4-1.8,5.8-6.9c0.3-4.6,0.2-8.7,0.2-9.2l0-0.5    c0.2-2.2,0.4-5.4-0.8-7.4c2.8-0.2,5.5-0.6,7.4-0.9c0.4-0.1,0.8-0.1,1.1-0.2c3.3-0.5,4.6-2.7,5.1-5.2c3,3.4,7.4,4.1,11.1,4.1    c0.5,0,1,0,1.5,0c-0.6,0.8-1.1,1.7-1.5,2.5c-1.5-1.1-3.8-2.1-6.8-2.5c-4-0.4-8.2,3.5-9.6,5.7c-1.4,2.2-2.2,6.9-1.2,10.6    c0.9,3.2,4.1,8.2,6.9,8.5c0.1,0,0.2,0,0.3,0c2.4,0,4.8-2.6,6.9-5.1c1.3-1.5,2.8-5.2,3.8-7.9c0,0.1,0,0.2,0.1,0.3    c0.1,0.5,0.3,1.1,0.4,1.8c1.3,5.7,5.7,10.2,8.6,10.2c2.9,0,5.8-4,7.3-7.7c0.5-1.2,0.9-3.3,1.1-5.5c1.7,2.4,4.2,5.8,5.3,6.7    c0.5,0.3,1,0.5,1.5,0.5c0.1,0,0.3,0,0.4,0c1.5-0.2,2.7-1.7,4.3-4c0.3-0.4,0.5-1.1,0.6-1.9c1.5,1.4,3.8,3,6.4,3c0.1,0,0.2,0,0.3,0    c0.7,0,1.3-0.3,1.7-0.8c0.4,0.4,0.8,0.8,1.3,1c0.6,0.3,1.2,0.4,1.8,0.4c1.2,0,2.4-0.4,3.3-0.8c0.4-0.2,0.9-0.5,1.3-1.4    c0.5,0.4,1.1,0.6,1.5,0.7c0.2,0,0.4,0,0.5,0c2.1,0,4.1-1.8,5-2.6c0.7-0.6,1.3-1.8,1.2-7.1c0-2-0.2-3.9-0.2-4.8    c1-0.6,1.9-1.5,2.7-2.8c1.4-2.2,2.2-4.8,2.4-6.5C193,24.2,193,21.6,192.6,19L192.6,19z"></path>
	</g>
</g>
</svg>